<svg xmlns="http://www.w3.org/2000/svg" xmlns:xlink="http://www.w3.org/1999/xlink" width="126.923" height="60.562" viewBox="0 0 126.923 60.562">
  <defs>
    <clipPath id="clip-path">
      <path id="Path_2" data-name="Path 2" d="M525,72h41.286V91.411H525Zm0,0" transform="translate(-525 -72)"/>
    </clipPath>
    <clipPath id="clip-path-2">
      <path id="Path_9" data-name="Path 9" d="M7,198H129.665v28.248H7Zm0,0" transform="translate(-7 -198)"/>
    </clipPath>
  </defs>
  <g id="surface1" transform="translate(0 0.101)">
    <g id="Group_1" data-name="Group 1" transform="translate(85.637 11.66)" clip-path="url(#clip-path)">
      <path id="Path_1" data-name="Path 1" d="M541.973,84.442a1.569,1.569,0,0,0,.284-.226c.11-.111.208-.2.341-.337a6.659,6.659,0,0,0,.821-.934,5.706,5.706,0,0,0,.6-1.037,7.965,7.965,0,0,0,.58-1.517,7.785,7.785,0,0,0,.246-.9,4.164,4.164,0,0,0,.114-1.418c-.022-.157-.022-.267-.038-.36a.814.814,0,0,0-.053-.261,1.126,1.126,0,0,0-.288-.432c-.144-.149-.182-.187-.3-.225a.828.828,0,0,0-.431-.1,1.517,1.517,0,0,0-.409,0,.5.5,0,0,0-.246.057,2.185,2.185,0,0,0-.3.116,3.266,3.266,0,0,0-.6.3,2,2,0,0,1-.189.148.846.846,0,0,0-.132.134V75.275a.561.561,0,0,1,.193-.093,4.955,4.955,0,0,1,1.163-.487,4.638,4.638,0,0,1,.9-.231,8.184,8.184,0,0,1,1.069-.112,2.8,2.8,0,0,1,.6.042,3.213,3.213,0,0,1,.621.129,3.33,3.33,0,0,1,.621.265,2.818,2.818,0,0,1,.651.375,2.465,2.465,0,0,1,.508.466,3.6,3.6,0,0,1,.693,1.241.377.377,0,0,0,.151.019,1.241,1.241,0,0,1,.432.146,1.3,1.3,0,0,1,.39.282.567.567,0,0,1,.133.17.431.431,0,0,0,.076.091.723.723,0,0,1,.094.155.945.945,0,0,1,.11.2.478.478,0,0,1,.06.225.513.513,0,0,1,.018.167,1.3,1.3,0,0,1-.037.45l-1.409,5.378a1.284,1.284,0,0,1-.094.228.368.368,0,0,1-.038.134.441.441,0,0,0,.133,0,.319.319,0,0,0,.152-.04,1.224,1.224,0,0,0,.261-.168.91.91,0,0,0,.2-.187,1.54,1.54,0,0,1,.284-.337c.655-.75.992-1.2,1.632-1.973.784-.932,1.235-1.458,2.042-2.372.413-.474.636-.735,1.072-1.188.091-.091.167-.162.243-.238a1.159,1.159,0,0,1,.337-.3,1.535,1.535,0,0,1,.651-.337,2.51,2.51,0,0,1,.644-.038c.11.019.2.019.3.038a1.229,1.229,0,0,1,.337.112,1.094,1.094,0,0,1,.333.225c.041.04.094.076.136.114l.094.112c.054.057.091.113.129.154a1.625,1.625,0,0,1,.019-.286c.011-.619.011-.974.034-1.591a3.2,3.2,0,0,0,0-.377,2.127,2.127,0,0,1,.041-.491,1.811,1.811,0,0,1,.132-.429.986.986,0,0,0,.068-.222,1.273,1.273,0,0,1,.227-.32,1.514,1.514,0,0,1,.261-.174c.076-.013.133-.054.2-.073a1.682,1.682,0,0,1,.511-.074c.091,0,.171.019.243.019a.447.447,0,0,0,.17.038c.186.036.28.076.47.113.224.034.352.034.595.053a14.563,14.563,0,0,0,1.8.038c.942-.019,1.465-.019,2.4-.076a.189.189,0,0,1,.091-.015.779.779,0,0,1,.247-.024.405.405,0,0,0,.166.024.973.973,0,0,1,.243.072,1.322,1.322,0,0,1,.189.078.974.974,0,0,1,.246.221,1.013,1.013,0,0,1,.148.394.552.552,0,0,1-.019.265.224.224,0,0,1-.019.11l-.227,1.878a.978.978,0,0,1-.129.409.852.852,0,0,1-.713.47h-.185a6.167,6.167,0,0,1-1.163.059c-.511.015-.81.015-1.318,0a8.122,8.122,0,0,1-1.14-.019h-.076c-.095.6-.148.958-.242,1.572a25.311,25.311,0,0,1-.447,2.53c-.265,1.3-.326,1.767-.511,2.46-.11.449-.223,1.087-.314,1.647-.061.3-.114.584-.171.809-.061.167-.113.373-.166.522a1.046,1.046,0,0,1-.356.563.917.917,0,0,1-.375.155c-.1.013-.174.013-.284.036l-2.117.13a.97.97,0,0,1-.4-.057.678.678,0,0,1-.409-.411.607.607,0,0,1-.019-.361.127.127,0,0,1,.019-.072,3.64,3.64,0,0,1,.057-.449l1.144-4.9c.054-.206.091-.3.129-.509,0-.072.019-.146.019-.2a.558.558,0,0,0-.076-.2.46.46,0,0,1-.072-.113.174.174,0,0,0-.094-.019.4.4,0,0,0-.129-.038,1.08,1.08,0,0,1-.228.038c-.057.038-.132.074-.152.094-.018,0-.037.017-.057.038-.038.018-.076.051-.185.189-.337.356-.508.544-.788.842-.451.523-.826,1.139-1.409,1.8-1.159,1.293-1.78,2.14-3.015,3.355-.208.187-.3.3-.511.472a9.325,9.325,0,0,1-.746.6c-.114.076-.189.15-.261.207a2.512,2.512,0,0,1-.341.206,2.043,2.043,0,0,1-.6.242,1.909,1.909,0,0,1-.735.078,1.635,1.635,0,0,1-.618-.171,1.4,1.4,0,0,1-.538-.336,1.258,1.258,0,0,1-.341-.483,1.338,1.338,0,0,1-.133-.379,1.747,1.747,0,0,1-.03-.339,2.821,2.821,0,0,1-.027-.465c-.091.11-.17.221-.238.316a2.923,2.923,0,0,1-.322.377,6.906,6.906,0,0,1-.747.657,7.639,7.639,0,0,1-.977.58,4.309,4.309,0,0,1-.92.429,6.349,6.349,0,0,1-.678.21Zm-2.326-3.486a8.892,8.892,0,0,0-.408,1.127c-.077.316-.129.487-.186.8a4.245,4.245,0,0,0-.076.918c.023.15.023.278.038.413a.886.886,0,0,0,.076.282.761.761,0,0,0,.3.39.777.777,0,0,0,.337.154.929.929,0,0,0,.356.076,1.362,1.362,0,0,0,.545-.038,2.335,2.335,0,0,0,.632-.208,3.5,3.5,0,0,0,.674-.392l.038-.038v5.364c-.072.019-.171.036-.277.057-.227.036-.413.074-.621.093a4.116,4.116,0,0,1-.678.034,4.4,4.4,0,0,1-1.087-.2,3.909,3.909,0,0,1-1.927-1.541c-.087-.145-.17-.261-.246-.375-.352.229-.636.361-1.049.6-.523.331-.8.54-1.345.842-.659.391-1.034.6-1.727.935a13.354,13.354,0,0,1-1.9.75,11.322,11.322,0,0,1-1.106.319,6.475,6.475,0,0,1-.969.131,4.9,4.9,0,0,1-.735,0c-.113-.021-.2-.021-.3-.04a1.334,1.334,0,0,1-.337-.091c-.129-.054-.243-.11-.356-.165a3.266,3.266,0,0,1-.261-.21,1.076,1.076,0,0,1-.223-.166.949.949,0,0,1-.262-.3,1.444,1.444,0,0,1-.17-.4c-.019-.072-.019-.163-.053-.275a3.757,3.757,0,0,1-.057-.659,2.706,2.706,0,0,1,.076-.545l1.818-8.019-2.124.274a.592.592,0,0,1-.277.025.7.7,0,0,1-.451-.185.677.677,0,0,1-.223-.514.722.722,0,0,1,0-.2.737.737,0,0,0,.031-.131l.378-1.822a.893.893,0,0,1,.057-.24.718.718,0,0,1,.246-.415,1,1,0,0,1,.352-.187,1.086,1.086,0,0,1,.265-.038l2.757-.378.879-3.459a1.008,1.008,0,0,1,.2-.434.576.576,0,0,1,.227-.208c.061-.04.114-.072.186-.112.064-.017.1-.038.155-.053a.727.727,0,0,1,.221-.061L533.2,72.2a.405.405,0,0,1,.489.542l-.863,3.6,2.288-.276a.4.4,0,0,1,.151-.023h.2a.682.682,0,0,1,.507.322.815.815,0,0,1,.091.635l-.584,2.083a.715.715,0,0,1-.276.373.8.8,0,0,1-.227.15,1.244,1.244,0,0,1-.333.112c-.083.019-.155.019-.247.036l-2.347.3-1.492,6.81c-.023.053-.023.091-.042.146v.228c.019,0,.042.015.057.015a.556.556,0,0,1,.076-.015,1.047,1.047,0,0,1,.2-.074c.185-.059.337-.136.489-.192.166-.089.337-.184.565-.282.988-.487,1.534-.788,2.491-1.328.883-.509,1.387-.807,2.193-1.314a4.221,4.221,0,0,0,.076-.472c.094-.5.132-.784.261-1.291a10.487,10.487,0,0,1,.712-1.837,12.774,12.774,0,0,1,1.253-2.159c.284-.388.512-.729.75-1.026a6.377,6.377,0,0,1,.906-.9,9.561,9.561,0,0,1,.784-.661,7.185,7.185,0,0,1,.637-.428v2.175a.705.705,0,0,0-.091.076,4.426,4.426,0,0,0-.693.727c-.151.187-.261.339-.375.491-.091.164-.2.316-.318.54-.247.414-.356.659-.564,1.072-.114.228-.186.36-.285.6" transform="translate(-525.08 -72.161)" fill="#231f20" fill-rule="evenodd"/>
    </g>
    <path id="Path_3" data-name="Path 3" d="M544.224,87.234c.076-.057.155-.114.231-.169a6.72,6.72,0,0,0,.708-.636,7.5,7.5,0,0,0,.886-1,7.332,7.332,0,0,0,.617-1.085,10.225,10.225,0,0,0,.617-1.6,7.736,7.736,0,0,0,.243-.935,4.473,4.473,0,0,0,.129-1.569,2.068,2.068,0,0,0-.129-.733,1.639,1.639,0,0,0-.379-.586,1.27,1.27,0,0,0-.427-.32,1.676,1.676,0,0,0-.58-.129,2.28,2.28,0,0,0-.511,0,2.128,2.128,0,0,0-.655.208,2.915,2.915,0,0,0-.674.356c-.038.018-.06.018-.076.034V78.031a4.491,4.491,0,0,1,.394-.229,6.153,6.153,0,0,1,1.087-.462,5.445,5.445,0,0,1,.849-.191,4.4,4.4,0,0,1,1.01-.11,2.531,2.531,0,0,1,.522.036,3.113,3.113,0,0,1,.561.11c.208.08.341.136.549.229a2.693,2.693,0,0,1,.575.337,1.544,1.544,0,0,1,.432.413,2.156,2.156,0,0,1,.417.6,2.279,2.279,0,0,1,.185.5,2.209,2.209,0,0,1,.113.322.869.869,0,0,1,.394-.019.885.885,0,0,1,.319.094,1.379,1.379,0,0,1,.261.206,1.4,1.4,0,0,1,.151.2.844.844,0,0,1,.152.249.5.5,0,0,1,.053.276.793.793,0,0,1-.018.3l-1.424,5.38c-.018.11-.072.168-.095.284a.462.462,0,0,0-.015.223.351.351,0,0,0,.038.2.329.329,0,0,0,.11.129c.057.057.114.057.2.076a.518.518,0,0,0,.265,0,1.029,1.029,0,0,0,.261-.076,1.215,1.215,0,0,0,.356-.2,3.013,3.013,0,0,0,.542-.6c.678-.745,1.015-1.2,1.651-1.966.792-.933,1.239-1.46,2.045-2.382.413-.451.633-.727,1.072-1.161a2.493,2.493,0,0,1,.5-.5.945.945,0,0,1,.5-.246,1.065,1.065,0,0,1,.485-.038.992.992,0,0,1,.492.114,1.316,1.316,0,0,1,.432.337,2.169,2.169,0,0,1,.245.335c.11.152.129.264.235.413.038.036.038.095.1.116a.115.115,0,0,0,.148,0c.053-.021.072-.08.091-.116.095-.149.038-.261.057-.413a4.961,4.961,0,0,0,.023-.748c.015-.64.034-.979.057-1.6a3.162,3.162,0,0,1,.037-.782,1.305,1.305,0,0,1,.087-.358.742.742,0,0,1,.208-.375.563.563,0,0,1,.3-.154.757.757,0,0,1,.359-.057.909.909,0,0,1,.314.057c.194.036.3.057.492.1a5.921,5.921,0,0,0,.633.074,15.01,15.01,0,0,0,1.837.038c.942-.019,1.484-.019,2.423-.091.11,0,.167-.02.28-.02a1.753,1.753,0,0,1,.28.057.391.391,0,0,1,.3.356c.018.092-.019.147-.019.238l-.224,1.877a.913.913,0,0,1-.076.246.564.564,0,0,1-.166.185c-.132.095-.243.036-.413.076a10.573,10.573,0,0,1-1.128.059h-1.273a11.025,11.025,0,0,1-1.125-.04c-.189-.019-.3-.038-.5-.074-.019.167-.019.243-.042.413-.113.618-.151.972-.257,1.608-.17.981-.159,1.369-.431,2.513-.265,1.3-.341,1.746-.508,2.442a27.514,27.514,0,0,1-.655,2.939.506.506,0,0,1-.208.339c-.132.113-.246.092-.4.113l-2.114.131a.771.771,0,0,1-.208-.017.349.349,0,0,1-.171-.15c-.015-.077.019-.134.019-.231a2.633,2.633,0,0,1,.076-.407l1.128-4.895a3.262,3.262,0,0,0,.129-.547,1.214,1.214,0,0,0,.034-.394.875.875,0,0,0-.147-.313c-.072-.1-.091-.174-.186-.227-.075-.074-.151-.074-.242-.116a.982.982,0,0,0-.394-.018,1.454,1.454,0,0,0-.341.1,1.279,1.279,0,0,0-.466.394c-.341.355-.508.539-.773.846-.466.522-.84,1.144-1.423,1.795-1.14,1.3-1.78,2.115-3,3.341-.193.187-.307.278-.489.445a7.479,7.479,0,0,1-.73.585,3.585,3.585,0,0,1-.527.377,1.874,1.874,0,0,1-.507.2,1.563,1.563,0,0,1-.583.059,1.6,1.6,0,0,1-.485-.134,1.321,1.321,0,0,1-.394-.241,1.246,1.246,0,0,1-.261-.354,2.049,2.049,0,0,1-.129-.566,4.554,4.554,0,0,1,0-.5c.015-.175.038-.266.057-.436a2.687,2.687,0,0,0,.031-.394c-.012-.093.023-.15-.031-.2-.075-.076-.174,0-.249.053-.11.072-.091.187-.145.3-.136.2-.287.264-.435.449a8.273,8.273,0,0,1-.565.674,5.515,5.515,0,0,1-.708.622,6.3,6.3,0,0,1-.9.54,4.962,4.962,0,0,1-.859.412,3.436,3.436,0,0,1-.53.148ZM541.774,82.4c-.113.221-.174.35-.284.6a8.012,8.012,0,0,0-.432,1.2,4.032,4.032,0,0,0-.185.842,3.479,3.479,0,0,0-.095,1.007,1.863,1.863,0,0,0,.167.865,1.357,1.357,0,0,0,.416.563,2.2,2.2,0,0,0,.485.226,2.117,2.117,0,0,0,.447.092,2.4,2.4,0,0,0,.655-.039,2.248,2.248,0,0,0,.739-.243,2.868,2.868,0,0,0,.538-.282v4.33c-.107.021-.224.059-.352.078a4.317,4.317,0,0,1-1.177.134,2.927,2.927,0,0,1-.981-.191,2.706,2.706,0,0,1-.935-.508,2.667,2.667,0,0,1-.768-.84,3.713,3.713,0,0,1-.436-.826,2.232,2.232,0,0,1-.276.2c-.451.318-.731.432-1.185.716-.519.32-.8.521-1.348.821a14.337,14.337,0,0,1-1.685.921,16.272,16.272,0,0,1-1.837.733,7.212,7.212,0,0,1-1.068.3,5.009,5.009,0,0,1-.92.131,3.365,3.365,0,0,1-.651,0,2.692,2.692,0,0,1-.53-.092,2.172,2.172,0,0,1-.508-.319,1.364,1.364,0,0,1-.375-.339,1.437,1.437,0,0,1-.148-.545,2.568,2.568,0,0,1-.053-.542,1.907,1.907,0,0,1,.053-.466l1.973-8.665-2.757.375c-.151.019-.265.057-.375-.038-.136-.112-.1-.262-.061-.43l.378-1.82c.031-.167.031-.3.171-.411a.725.725,0,0,1,.375-.134l3.053-.392.954-3.766a.9.9,0,0,1,.133-.284.549.549,0,0,1,.242-.166c.095-.033.133-.078.224-.078l2.158-.263-1.01,4.219,2.923-.333c.17-.038.337-.057.432.092a.358.358,0,0,1,.038.282l-.583,2.059c-.053.155-.148.191-.28.267a1.27,1.27,0,0,1-.432.092l-2.662.352L532.378,89a1.027,1.027,0,0,0-.057.335c0,.148-.038.258.057.393.037.075.095.1.166.149a.656.656,0,0,0,.284.04,1.146,1.146,0,0,0,.413-.093,6.882,6.882,0,0,0,1.106-.505c1.011-.472,1.553-.792,2.537-1.332.931-.545,1.454-.867,2.393-1.445.019-.263.057-.415.095-.657a8.412,8.412,0,0,1,.242-1.237,10.141,10.141,0,0,1,.693-1.778,10.707,10.707,0,0,1,1.216-2.086,9.137,9.137,0,0,1,1.56-1.857,8.962,8.962,0,0,1,1.14-.9v1.047c-.144.113-.243.206-.391.339a6.209,6.209,0,0,0-.749.789,7.55,7.55,0,0,0-.731,1.085,9.807,9.807,0,0,0-.58,1.11" transform="translate(-441.695 -62.733)" fill="#231f20" fill-rule="evenodd"/>
    <path id="Path_4" data-name="Path 4" d="M71.394,110.018a7.357,7.357,0,0,0,.9-.637c.188-.147.337-.266.473-.391a2.794,2.794,0,0,0,.39-.394c.131-.153.262-.282.358-.414a.427.427,0,0,0,.127-.26c.061-.288.038-.337-.015-.413-.023-.061-.038-.075-.186-.17-.1-.038-.359-.2-.64-.375a3.928,3.928,0,0,0-.36-.208c-.032-.015-.072-.038-.11-.057a1.848,1.848,0,0,0-.939.245V104.7a3.717,3.717,0,0,1,1.164-.3,3.9,3.9,0,0,1,1.742.018,3.382,3.382,0,0,1,.921.319,3.2,3.2,0,0,1,.988.748,3.413,3.413,0,0,1,.754,1.333,3.351,3.351,0,0,1,.226,1.123,3.177,3.177,0,0,1-.112.865,3.952,3.952,0,0,1-.523,1.237,2.759,2.759,0,0,1-.491.617c-.148.151-.318.282-.505.47a15.864,15.864,0,0,1-1.481,1.312,22.961,22.961,0,0,1-2.25,1.553c-.151.1-.282.191-.433.288Zm0,9.112c.152-.036.32-.057.489-.093a8.022,8.022,0,0,0,1.444-.447,10.732,10.732,0,0,0,2.134-1.109,11.834,11.834,0,0,0,1.691-1.239c.152-.129.263-.225.377-.318a3.664,3.664,0,0,0,.41-.4c0-.013.038-.034.074-.07a.82.82,0,0,0,.171-.136.733.733,0,0,0,.262-.693.791.791,0,0,0-.377-.521c-.036-.039-.092-.057-.13-.094s-.072-.038-.072-.059l-1.562-1.236a.52.52,0,0,0-.542-.019L75,113.26c-.392.32-.619.511-1.047.809a11.655,11.655,0,0,1-1.971,1.146c-.242.091-.4.146-.583.207Zm-1.216-8.287c.411-.263.638-.413,1.032-.689.071-.062.134-.1.184-.136v4.261c-.54.331-.972.6-1.551.935a1.012,1.012,0,0,0,.263.223.848.848,0,0,0,.43.091,4.6,4.6,0,0,0,.636-.07,1.256,1.256,0,0,1,.222-.038v3.71a5.3,5.3,0,0,1-1.574.059,4.847,4.847,0,0,1-1.176-.208,4.084,4.084,0,0,1-1.219-.563c-.152-.114-.286-.185-.419-.28a1.671,1.671,0,0,1-.318-.318c-.489.356-.748.6-1.252.972a18.712,18.712,0,0,1-2.346,1.446,14.9,14.9,0,0,1-2.009.9c-.312.111-.556.223-.8.318a6.819,6.819,0,0,1-.879.244c-.153.019-.244.057-.358.074a1.887,1.887,0,0,1-.468.019,1.243,1.243,0,0,1-.282-.019.827.827,0,0,1-.356-.129,1.074,1.074,0,0,1-.451-.377,1.35,1.35,0,0,1-.261-.771c0-.166.038-.356.038-.562a4.654,4.654,0,0,1,.059-.618c.036-.167.07-.337.112-.545.127-.843.261-1.329.428-2.176.076-.39.095-.617.173-1.026.076-.3.129-.47.185-.79a3.331,3.331,0,0,1,.055-.354,1.466,1.466,0,0,0,.041-.28c-.022-.078,0-.155-.022-.21-.057.094-.093.133-.131.191a2.578,2.578,0,0,1-.148.242c-.267.449-.377.731-.638,1.2-.507.9-.844,1.388-1.369,2.27-.617,1.047-.9,1.685-1.576,2.693a15.075,15.075,0,0,1-.916,1.3c-.17.224-.3.394-.452.565a3.552,3.552,0,0,1-.525.542c-.09.094-.168.162-.24.244-.095.074-.187.15-.324.242a2.035,2.035,0,0,1-.693.3,1.954,1.954,0,0,1-1.2.019,1.578,1.578,0,0,1-.521-.25,2.182,2.182,0,0,1-.489-.373,1.9,1.9,0,0,1-.471-1.251,4.735,4.735,0,0,1-.019-1.148c.019-.246.057-.468.095-.826.059-.507.115-.784.191-1.294.089-.676.127-1.051.24-1.727a.852.852,0,0,0,.038-.165c-.17.258-.259.468-.449.788-.436.712-.733,1.07-1.182,1.78-.768,1.142-1.146,1.837-1.892,3-.507.747-.745,1.178-1.293,1.887-.226.286-.377.529-.549.75a4.547,4.547,0,0,1-.691.75c-.148.136-.259.246-.375.337a2.4,2.4,0,0,1-.467.3,2.77,2.77,0,0,1-1.014.356,2.952,2.952,0,0,1-1.146-.016,2.8,2.8,0,0,1-.712-.245,2.575,2.575,0,0,1-.5-.356,2.039,2.039,0,0,1-.189-.19,1.261,1.261,0,0,1-.169-.207,3.282,3.282,0,0,1-.657-1.121,6.981,6.981,0,0,1-.3-1c-.038-.11-.073-.2-.094-.294-.244.351-.472.629-.784,1.066a25.808,25.808,0,0,1-2.066,2.415c-.358.38-.657.677-.935.958a9.39,9.39,0,0,1-1.089.9,9.688,9.688,0,0,1-1.855,1.107,9.748,9.748,0,0,1-2.625.9,7.884,7.884,0,0,1-2.379.131,6.672,6.672,0,0,1-1.783-.352,6.871,6.871,0,0,1-2.043-1.128,8.07,8.07,0,0,1-1.914-2.026,9.516,9.516,0,0,1-1.313-2.509,12.928,12.928,0,0,1-.839-3.545,15.793,15.793,0,0,1,0-4.442,18.308,18.308,0,0,1,.614-3.245,21.82,21.82,0,0,1,.975-3.094,19.732,19.732,0,0,1,2.835-4.853,21.029,21.029,0,0,1,2.344-2.7,22.755,22.755,0,0,1,3.3-2.7,12.821,12.821,0,0,1,3.17-1.46c.354-.114.632-.21.916-.282A6.458,6.458,0,0,1,33,98.209a4.9,4.9,0,0,1,1.386.057,4.58,4.58,0,0,1,1.127.3c.142.075.277.129.409.206a1.624,1.624,0,0,1,.429.337,2.033,2.033,0,0,1,.588.919,2.633,2.633,0,0,1,.09.994,2.6,2.6,0,0,1-.168.858,2.105,2.105,0,0,1-.6.882,2.244,2.244,0,0,1-1.557.587c-.13-.018-.265-.043-.432-.081a1.644,1.644,0,0,1-.392-.127c-.076-.02-.15-.057-.242-.075a2.406,2.406,0,0,0-.619-.112,2.628,2.628,0,0,0-1.28.131,11.523,11.523,0,0,0-1.2.578c-.261.155-.466.282-.676.433-.185.152-.392.32-.637.525A15.431,15.431,0,0,0,26.76,107.1,17.706,17.706,0,0,0,23.5,112.42a15.183,15.183,0,0,0-1.18,3.994,13.244,13.244,0,0,0-.21,3.244c.038.579.057,1.047.116,1.517a8.237,8.237,0,0,0,.314,1.4,7.969,7.969,0,0,0,.674,1.487c.134.226.248.415.357.577a2.9,2.9,0,0,0,.4.491,3.3,3.3,0,0,0,1.121.863,2.733,2.733,0,0,0,1.13.26,4.26,4.26,0,0,0,1.534-.091,6.018,6.018,0,0,0,1.878-.657,6.142,6.142,0,0,0,.933-.617c.286-.228.563-.489.917-.788a14.3,14.3,0,0,0,2.047-2.191c.563-.754,1.087-1.56,1.763-2.533.5-.735.786-1.144,1.255-1.9a30.288,30.288,0,0,0,1.593-3.111c.132-.261.189-.378.244-.471a.229.229,0,0,0,.057-.072.809.809,0,0,1,.038-.111,2.076,2.076,0,0,1,.712-.9,2.146,2.146,0,0,1,.244-.113,1.154,1.154,0,0,1,.2-.074.738.738,0,0,0,.208,0,2.256,2.256,0,0,1,.864.019c.131.038.24.055.354.093a3.569,3.569,0,0,1,.4.132,1.23,1.23,0,0,1,.635.691,2.323,2.323,0,0,1,.078.319v.248a1.862,1.862,0,0,1-.04.4,2.576,2.576,0,0,1-.076.3,9.036,9.036,0,0,1-.471,1.481,20.184,20.184,0,0,0-.727,2.456c-.072.375-.11.583-.149.956-.019.224-.038.373-.057.545a3.869,3.869,0,0,0,.038.449c.038.131.059.242.1.337a.49.49,0,0,0,.091.206.476.476,0,0,0,.248.187.29.29,0,0,0,.259,0,.356.356,0,0,0,.095-.057,1.1,1.1,0,0,0,.163-.131.937.937,0,0,0,.282-.282c.1-.11.189-.242.323-.409a14.371,14.371,0,0,0,1.1-1.594c.316-.526.619-1.068,1.048-1.729,1.187-1.757,1.8-2.772,3.02-4.479.411-.564.543-.766,1.051-1.424.057-.071.129-.168.2-.261s.172-.187.261-.3a2.3,2.3,0,0,1,.8-.54,2.326,2.326,0,0,1,.791-.189,3.606,3.606,0,0,1,.9.053c.164.04.314.057.447.095a2,2,0,0,1,.508.229,1.96,1.96,0,0,1,.653.788,2.3,2.3,0,0,1,.191.612,2.08,2.08,0,0,1,.038.454c-.019.112-.019.226-.038.356-.019.4-.057.617-.1,1-.073.506-.132.784-.2,1.271-.075.452-.091.712-.153,1.164-.013.093-.038.185-.057.263a.3.3,0,0,0,.135-.113c.057-.093.11-.189.184-.32.229-.316.322-.526.53-.859.5-.9.752-1.447,1.253-2.328.432-.746.68-1.159,1.125-1.892.341-.524.505-.844.881-1.352.115-.149.189-.265.282-.39a2.31,2.31,0,0,1,.373-.429,2.561,2.561,0,0,1,.939-.567,2.717,2.717,0,0,1,1.216-.148,2.8,2.8,0,0,1,.977.148,3.858,3.858,0,0,1,.657.316,2.261,2.261,0,0,1,.654.619,1.766,1.766,0,0,1,.375.678,2.868,2.868,0,0,1,.173.934,5.276,5.276,0,0,1-.042.962c-.034.521-.053.824-.11,1.331-.076.651-.148,1.007-.245,1.645a9.788,9.788,0,0,0-.261,1.652,1.088,1.088,0,0,1-.018.263v.034a.158.158,0,0,1,.018.078c.038-.02.057-.059.095-.078l.207-.051a.687.687,0,0,0,.166-.076,1.322,1.322,0,0,1,.263-.17c.751-.417,1.142-.678,1.839-1.144.58-.378.937-.6,1.439-.973.024-.245.024-.436.057-.714a11.494,11.494,0,0,1,.318-1.723,8.6,8.6,0,0,1,.526-1.78,8.993,8.993,0,0,1,.886-1.8,9.512,9.512,0,0,1,.955-1.255,8.98,8.98,0,0,1,1.276-1.241,5.994,5.994,0,0,1,1.367-.8c.057-.017.134-.055.184-.07v2.244a4.854,4.854,0,0,0-1.837,2.122,3.455,3.455,0,0,0-.428,1.685c.036.32.147.471.371.524.244-.149.415-.244.678-.431" transform="translate(-14.796 -82.254)" fill="#231f20" fill-rule="evenodd"/>
    <path id="Path_5" data-name="Path 5" d="M73.723,112.871c.02-.019.02-.034.041-.034.449-.317.708-.449,1.123-.788a7.159,7.159,0,0,0,.939-.858c.259-.322.5-.475.58-.886a.971.971,0,0,0-.076-.727,1.052,1.052,0,0,0-.358-.3,9.6,9.6,0,0,0-1.251-.712,2.036,2.036,0,0,0-1,.187v-1.274a4.244,4.244,0,0,1,1.2-.337,3.515,3.515,0,0,1,1.594.036,2.593,2.593,0,0,1,.807.263,2.942,2.942,0,0,1,.863.657,2.906,2.906,0,0,1,.657,1.159,2.614,2.614,0,0,1,.2.994,2.493,2.493,0,0,1-.113.752,3.123,3.123,0,0,1-.445,1.128,5.472,5.472,0,0,1-.941,1.007,15.417,15.417,0,0,1-1.424,1.255,26.126,26.126,0,0,1-2.235,1.541c-.055.032-.108.072-.168.112Zm6.582,4.185v-.04c-.036-.223-.261-.242-.434-.394l-1.532-1.249-.752.56c-.415.315-.636.506-1.07.8a11.686,11.686,0,0,1-2.045,1.2,3.8,3.8,0,0,1-.749.24v2.812a2.078,2.078,0,0,1,.378-.074,9.822,9.822,0,0,0,1.386-.429,10.52,10.52,0,0,0,2.044-1.074,11.506,11.506,0,0,0,1.647-1.216,6.027,6.027,0,0,0,.733-.654c.152-.17.394-.248.394-.452Zm-8.4-3.02c.32-.184.511-.3.827-.5.394-.246.615-.415.991-.663v3.174c-.786.505-1.292.8-2.153,1.312a.9.9,0,0,0,.221.449,1.219,1.219,0,0,0,.415.318,1.8,1.8,0,0,0,1.333.074c.076,0,.129-.019.184-.019v2.812a6.072,6.072,0,0,1-1.555.076,4.333,4.333,0,0,1-1.087-.206,4.191,4.191,0,0,1-1.1-.5,2.045,2.045,0,0,1-.676-.584,1.333,1.333,0,0,1-.153-.3c-.149.091-.221.148-.354.24-.524.4-.788.642-1.314,1.013a17.155,17.155,0,0,1-2.288,1.422,16.923,16.923,0,0,1-1.961.884,9.756,9.756,0,0,1-1.614.524,2.425,2.425,0,0,1-.716.093.8.8,0,0,1-.45-.093,1.011,1.011,0,0,1-.3-.24c-.263-.338-.129-.659-.129-1.074a7.135,7.135,0,0,1,.147-1.083c.154-.847.282-1.336.432-2.172.078-.4.094-.623.185-1.019.059-.316.115-.485.17-.8a2.355,2.355,0,0,0,.1-.729,1.249,1.249,0,0,0-.038-.451.594.594,0,0,0-.08-.19.292.292,0,0,0-.224-.111.374.374,0,0,0-.207.038.9.9,0,0,0-.263.264,3.141,3.141,0,0,0-.3.451c-.28.447-.39.748-.657,1.218-.505.9-.823,1.39-1.369,2.266-.617,1.03-.9,1.67-1.555,2.683-.339.5-.522.786-.881,1.256a8.058,8.058,0,0,1-.937,1.068,3.822,3.822,0,0,1-.508.431,1.958,1.958,0,0,1-.564.244,1.7,1.7,0,0,1-.953.038,2.19,2.19,0,0,1-.43-.208,1.844,1.844,0,0,1-.376-.3,1.356,1.356,0,0,1-.36-.992,6.472,6.472,0,0,1,.078-1.9c.057-.487.114-.765.169-1.256.113-.674.132-1.049.265-1.721a2.581,2.581,0,0,0,.09-.752,1.614,1.614,0,0,0-.09-.282c-.021-.072-.282-.038-.282-.038a.616.616,0,0,0-.207.149,3.633,3.633,0,0,1-.224.324c-.229.337-.32.538-.53.9-.428.71-.731,1.067-1.179,1.763-.769,1.163-1.142,1.857-1.894,3.015-.487.733-.731,1.169-1.272,1.877a7.819,7.819,0,0,1-1.183,1.428,2.933,2.933,0,0,1-.765.581,1.955,1.955,0,0,1-.844.3,2.667,2.667,0,0,1-1.593-.222,2.108,2.108,0,0,1-.733-.621,3.254,3.254,0,0,1-.581-1.011,6.115,6.115,0,0,1-.282-.938,5.649,5.649,0,0,1-.2-.77,3.869,3.869,0,0,1-.093-.655c-.151.246-.206.378-.356.619-.373.564-.6.859-1.011,1.4a23.08,23.08,0,0,1-2.024,2.382,14.274,14.274,0,0,1-1.97,1.818,11.035,11.035,0,0,1-1.8,1.068,8.93,8.93,0,0,1-2.494.847,7.13,7.13,0,0,1-2.265.129,5.9,5.9,0,0,1-1.67-.318,6.541,6.541,0,0,1-1.932-1.067,7.8,7.8,0,0,1-1.818-1.914,9.944,9.944,0,0,1-1.253-2.435,11.768,11.768,0,0,1-.809-3.433,15.478,15.478,0,0,1,0-4.347,21.33,21.33,0,0,1,.6-3.191,19.348,19.348,0,0,1,.96-3.02,18.991,18.991,0,0,1,2.789-4.757,19.212,19.212,0,0,1,2.291-2.644,21.811,21.811,0,0,1,3.223-2.643,11.769,11.769,0,0,1,3.057-1.407,6.478,6.478,0,0,1,1.82-.43,4.375,4.375,0,0,1,1.292.053,3.242,3.242,0,0,1,1.012.263,1.806,1.806,0,0,1,.711.451,1.67,1.67,0,0,1,.47.729,2.108,2.108,0,0,1,.076.846,1.545,1.545,0,0,1-.133.712,1.672,1.672,0,0,1-.489.714,1.48,1.48,0,0,1-.84.447,1.715,1.715,0,0,1-.769-.057,3.551,3.551,0,0,1-.6-.208,6.886,6.886,0,0,0-.693-.11,3.126,3.126,0,0,0-1.481.17,11.411,11.411,0,0,0-1.257.6,8.837,8.837,0,0,0-1.386,1.016,16.32,16.32,0,0,0-2.513,2.511,17.928,17.928,0,0,0-3.338,5.457,15.339,15.339,0,0,0-1.216,4.107,13.951,13.951,0,0,0-.21,3.331,9.734,9.734,0,0,0,.468,3.02,7.817,7.817,0,0,0,.693,1.578,5.548,5.548,0,0,0,.827,1.16,3.481,3.481,0,0,0,1.256.957,3.638,3.638,0,0,0,1.253.3,5.077,5.077,0,0,0,1.67-.095,6.207,6.207,0,0,0,2.005-.712,9.215,9.215,0,0,0,1.93-1.46,22.335,22.335,0,0,0,3.9-4.8c.511-.733.812-1.169,1.259-1.933a27.661,27.661,0,0,0,1.613-3.151,6.415,6.415,0,0,0,.36-.675,1.531,1.531,0,0,1,.5-.656c.4-.2.307-.131.507-.162a1.823,1.823,0,0,1,.712.032c.468.091.884.191,1.066.64a.9.9,0,0,1,.038.394,2.287,2.287,0,0,1-.089.6c-.13.581-.284.881-.45,1.443a18.48,18.48,0,0,0-.765,2.512A7.062,7.062,0,0,0,42.567,122a3.115,3.115,0,0,0,0,1.108,1.427,1.427,0,0,0,.278.731.827.827,0,0,0,.43.318.674.674,0,0,0,.549,0,1.156,1.156,0,0,0,.408-.24,3.591,3.591,0,0,0,.659-.771,30.918,30.918,0,0,0,2.192-3.355c1.161-1.742,1.782-2.757,3.02-4.46.39-.564.521-.768,1.032-1.425a2.871,2.871,0,0,1,1.085-.958,1.9,1.9,0,0,1,.656-.15,2.778,2.778,0,0,1,.788.053,1.836,1.836,0,0,1,.768.248,1.268,1.268,0,0,1,.508.617,1.136,1.136,0,0,1,.148.485,2.115,2.115,0,0,1,0,.716,5.612,5.612,0,0,1-.091.954c-.057.508-.132.767-.2,1.276-.059.449-.1.714-.15,1.163a1.7,1.7,0,0,0-.059.452.438.438,0,0,0,.171.3.335.335,0,0,0,.242.108c.129,0,.187-.072.3-.146a1.754,1.754,0,0,0,.433-.564,9.116,9.116,0,0,0,.526-.917c.521-.882.767-1.425,1.271-2.323.416-.735.661-1.148,1.105-1.859.339-.524.508-.822.863-1.313a4.149,4.149,0,0,1,.6-.765,2.211,2.211,0,0,1,.79-.469,2.272,2.272,0,0,1,1.066-.135,2.03,2.03,0,0,1,.829.135,2.36,2.36,0,0,1,.561.259,2.121,2.121,0,0,1,.545.505,2.384,2.384,0,0,1,.318.567,3.887,3.887,0,0,1,.153.8,7.614,7.614,0,0,1-.059.922c-.038.5-.038.786-.095,1.311-.076.636-.166.975-.267,1.611a10.837,10.837,0,0,0-.236,1.725.884.884,0,0,0,0,.451.319.319,0,0,0,.147.241c.208.191.428.061.691-.019a1.89,1.89,0,0,0,.545-.282c.754-.409,1.146-.693,1.858-1.159.655-.41,1.009-.657,1.647-1.109a7.183,7.183,0,0,1,.057-.915,10.963,10.963,0,0,1,.3-1.669,9.083,9.083,0,0,1,.509-1.7,7.7,7.7,0,0,1,.867-1.726,9.241,9.241,0,0,1,.9-1.217,7.9,7.9,0,0,1,1.22-1.163,5.264,5.264,0,0,1,1.255-.75c.017,0,.017,0,.036-.019v1.274c-2.174.937-3.842,5.194-1.818,5.286" transform="translate(-17.106 -84.566)" fill="#231f20" fill-rule="evenodd"/>
    <path id="Path_6" data-name="Path 6" d="M390.17,24.8a7.02,7.02,0,0,1-3.617-4.783,7.224,7.224,0,0,1-.076-1.839,5.114,5.114,0,0,1,.148-.789,8.808,8.808,0,0,1,5.14-5.417,15.562,15.562,0,0,1,3.924-1.161c7.214-1.14,10.18,1.579,10.566,1.988a1.052,1.052,0,0,1,.417,1.165,1.076,1.076,0,0,1-.133.413c-.053.108-.095.185-.095.185l-1.064,1.651a1.018,1.018,0,0,1-1.239.542,2.6,2.6,0,0,1-.45-.184c-.114-.061-.208-.115-.208-.115-2.549-1.985-7.627-.9-7.684-.881-2.439.447-3.454,1.272-3.867,1.89a2.24,2.24,0,0,0-.314.793.83.83,0,0,0,0,.277v.131c-.1,1.017,2.06,2.381,2.192,2.477l7.063,4.666a7.2,7.2,0,0,1,3.673,5.665,9.813,9.813,0,0,1-.053,2.344,9.477,9.477,0,0,1-.224.953,10.053,10.053,0,0,1-5.786,6.338,16.63,16.63,0,0,1-4.413,1.39,14.37,14.37,0,0,1-12.165-2.982,1.088,1.088,0,0,1-.415-1.33,1.2,1.2,0,0,1,.284-.377.324.324,0,0,1,.112-.093l1.705-2.005a.977.977,0,0,1,1.329-.544,1.6,1.6,0,0,1,.432.28c.057.055.113.114.132.13a9.553,9.553,0,0,0,5.772,1.987,10.8,10.8,0,0,0,2.083-.112,6.057,6.057,0,0,0,.807-.17c2.492-.6,3.632-1.664,4.162-2.49a3.358,3.358,0,0,0,.428-1.091,1.92,1.92,0,0,0,.057-.4v-.127c.583-2.8-2.958-4.8-3.057-4.855L390.17,24.8" transform="translate(-319.192 -8.898)" fill="#231f20" fill-rule="evenodd"/>
    <path id="Path_7" data-name="Path 7" d="M398.241,30.217l-5.548-3.545c-4.651-2.759-3.352-6.864-3.352-6.864,1.446-5.344,8.676-6.3,8.676-6.3,7.525-1.179,10.237,1.915,10.237,1.915.583.354.1,1.159.1,1.159l-1.087,1.685c-.326.717-1.242.092-1.242.092-2.753-2.132-8.044-.955-8.044-.955-5.022.9-4.534,3.49-4.534,3.49-.132,1.346,2.4,2.885,2.4,2.885l7.071,4.67c4.984,2.944,3.2,8.453,3.2,8.453-1.666,6.285-9.843,7.427-9.843,7.427a13.883,13.883,0,0,1-11.813-2.907.659.659,0,0,1,0-1.126l1.781-2.081c.454-.954,1.223-.038,1.223-.038a11,11,0,0,0,9.07,1.8c5.159-1.253,4.969-4.446,4.969-4.446.677-3.166-3.265-5.321-3.265-5.321" transform="translate(-321.472 -11.167)" fill="#231f20" fill-rule="evenodd"/>
    <g id="Group_2" data-name="Group 2" transform="translate(1.142 32.213)" clip-path="url(#clip-path-2)">
      <path id="Path_8" data-name="Path 8" d="M33.924,213.756c14.38-4.031,22.538-6.209,37.2-9.076,7.684-1.5,15.278-2.644,21.353-3.56,5.624-.822,9.695-1.466,16.91-2.065,3.431-.3,5.006-.429,6.6-.526s3.188-.147,6.673-.318c1.015-.057,4.707-.15,5.4-.089h.6c.155.019.284.019.4.032a1.243,1.243,0,0,1,.413.131.759.759,0,0,1,.3.433,2.107,2.107,0,0,1,.018.321,2.833,2.833,0,0,1-.061.335l-.5,1.875c-.023.076-.038.189-.072.282a.775.775,0,0,1-.3.484.978.978,0,0,1-.485.193h-.3c-.356.034-1.685.07-3,.089-1.406.038-2.867.055-3.394.076-4.647.189-6.506.452-12.41.956-9.3.786-15.937,1.782-22.814,2.925-4.616.769-9.3,1.479-15.168,2.64-14.518,2.854-22.614,4.974-36.826,9.053-9.5,2.744-14.864,4.316-24.181,7.675-.32.108-.712.28-1.089.407a4.4,4.4,0,0,1-.542.21,1.791,1.791,0,0,1-.524.093c-.583.038-.9-.375-.884-1.009,0-.545.059-1.689.1-2.159v-.224c0-.095-.021-.185-.021-.263a.79.79,0,0,1,.36-.75,2.722,2.722,0,0,1,.746-.32c.263-.093.566-.187.826-.259,1.6-.586,16.368-5.253,24.69-7.593" transform="translate(-7.189 -198.086)" fill="#231f20" fill-rule="evenodd"/>
    </g>
    <path id="Path_10" data-name="Path 10" d="M11.6,224.074c1.56-.556,16.347-5.249,24.692-7.59,14.361-4.031,22.517-6.2,37.159-9.074,7.665-1.5,15.259-2.641,21.314-3.543,5.624-.842,9.695-1.46,16.894-2.083,6.84-.581,6.3-.483,13.271-.84,1-.04,4.722-.135,5.347-.076a3.719,3.719,0,0,1,1.193.111c.193.114.06.579.06.579l-.507,1.86c-.053.166-.072.449-.208.545a.959.959,0,0,1-.557.091c-.511.095-5.31.133-6.377.167-4.65.191-6.525.451-12.433.958-9.313.784-15.948,1.78-22.849,2.923-4.632.771-9.3,1.5-15.187,2.646a376.577,376.577,0,0,0-36.86,9.07c-9.5,2.757-14.885,4.33-24.2,7.669a10.221,10.221,0,0,1-2.024.714c-.245,0-.43-.108-.43-.579.019-.531.076-1.653.11-2.117.038-.431-.148-.718.129-.9a6.921,6.921,0,0,1,1.464-.527" transform="translate(-8.287 -168.172)" fill="#231f20" fill-rule="evenodd"/>
    <path id="Path_11" data-name="Path 11" d="M535.178,77.71a1.569,1.569,0,0,0,.284-.226c.11-.111.208-.2.341-.337a6.659,6.659,0,0,0,.821-.934,5.706,5.706,0,0,0,.6-1.037,7.964,7.964,0,0,0,.58-1.517,7.785,7.785,0,0,0,.246-.9,4.164,4.164,0,0,0,.114-1.418c-.022-.157-.022-.267-.038-.36a.814.814,0,0,0-.053-.261,1.126,1.126,0,0,0-.288-.432c-.144-.149-.182-.187-.3-.225a.828.828,0,0,0-.431-.1,1.516,1.516,0,0,0-.409,0,.5.5,0,0,0-.246.057,2.181,2.181,0,0,0-.3.116,3.265,3.265,0,0,0-.6.3,2,2,0,0,1-.189.148.849.849,0,0,0-.132.134V66.65h.037a5.081,5.081,0,0,1,.883-.227,5.631,5.631,0,0,1,1.087-.112,3.084,3.084,0,0,1,.6.038,3.293,3.293,0,0,1,1.238.4,3,3,0,0,1,.659.373,2.126,2.126,0,0,1,.507.468,3.689,3.689,0,0,1,.466.693c.091.208.148.337.231.547a.461.461,0,0,0,.144.013,1.363,1.363,0,0,1,.431.152,1.3,1.3,0,0,1,.394.284,1.024,1.024,0,0,1,.133.171.982.982,0,0,0,.072.091c.038.055.076.1.1.134.03.073.068.131.106.223a.854.854,0,0,1,.057.222c0,.061.019.113.019.172a1.225,1.225,0,0,1-.038.451l-1.42,5.38a.688.688,0,0,1-.084.225.425.425,0,0,1-.037.127h.136a.347.347,0,0,0,.151-.034,1.473,1.473,0,0,0,.262-.169,1.845,1.845,0,0,0,.2-.185,1.423,1.423,0,0,1,.284-.341c.656-.746.977-1.2,1.629-1.966.791-.94,1.223-1.463,2.049-2.384.408-.47.636-.731,1.064-1.181.094-.095.17-.173.246-.245a1.161,1.161,0,0,1,.337-.3,1.507,1.507,0,0,1,.659-.337,1.869,1.869,0,0,1,.637-.042c.109.019.2.019.3.042a1.41,1.41,0,0,1,.674.337,1.134,1.134,0,0,0,.133.112l.095.112a1.56,1.56,0,0,0,.125.144,1.033,1.033,0,0,1,.027-.275c.011-.621.011-.975.034-1.6v-.375a2.268,2.268,0,0,1,.037-.483,1.88,1.88,0,0,1,.133-.436c.018-.074.057-.148.072-.223a1.451,1.451,0,0,1,.227-.321,2.369,2.369,0,0,1,.261-.17,1.2,1.2,0,0,1,.208-.074,1.628,1.628,0,0,1,.508-.074c.09,0,.163.019.238.019a.5.5,0,0,0,.171.038c.185.042.276.076.465.11.231.038.356.038.607.059a14.478,14.478,0,0,0,1.795.036c.943-.017,1.465-.017,2.4-.068a.132.132,0,0,1,.095-.026.96.96,0,0,1,.243-.019c.056,0,.11.019.17.019a1.652,1.652,0,0,1,.238.077,1,1,0,0,1,.189.074,1.643,1.643,0,0,1,.25.227.958.958,0,0,1,.147.392.531.531,0,0,1-.018.259.248.248,0,0,1-.019.115L558,69.2a.98.98,0,0,1-.132.408.637.637,0,0,1-.28.319.816.816,0,0,1-.431.154h-.185a6.071,6.071,0,0,1-1.167.057c-.5.019-.807.019-1.311,0a7.118,7.118,0,0,1-1.14-.023l-.075-.015c-.095.619-.152.974-.243,1.591-.17.994-.17,1.392-.451,2.533-.261,1.29-.319,1.763-.508,2.456-.113.449-.227,1.087-.318,1.65-.061.3-.11.562-.17.807-.057.166-.114.373-.171.526a1.031,1.031,0,0,1-.352.561.821.821,0,0,1-.4.149,2.009,2.009,0,0,1-.261.04l-2.117.127a1.041,1.041,0,0,1-.394-.051.694.694,0,0,1-.412-.415.593.593,0,0,1-.019-.358.148.148,0,0,1,.019-.076,3.843,3.843,0,0,1,.057-.45l1.144-4.893a2.38,2.38,0,0,0,.113-.508.87.87,0,0,0,.034-.2.518.518,0,0,0-.072-.208.455.455,0,0,1-.076-.13h-.1a.323.323,0,0,0-.143-.038c-.057.019-.152.019-.208.038-.057.036-.129.055-.148.095-.042,0-.042.017-.057.036-.042.015-.076.059-.19.173-.336.373-.507.556-.784.858-.47.526-.83,1.144-1.409,1.8-1.163,1.29-1.78,2.134-3.037,3.35-.186.191-.281.284-.489.474a8.078,8.078,0,0,1-.765.593c-.1.075-.174.153-.25.21a2.539,2.539,0,0,1-.337.208,2.024,2.024,0,0,1-.614.245,1.823,1.823,0,0,1-.716.076,1.539,1.539,0,0,1-.613-.171,1.342,1.342,0,0,1-.542-.337A1.454,1.454,0,0,1,537.8,80a1.693,1.693,0,0,1-.03-.333,3.959,3.959,0,0,1-.02-.473c-.1.113-.174.225-.245.32a2.521,2.521,0,0,1-.323.375,4.678,4.678,0,0,1-.765.655,5.9,5.9,0,0,1-.958.585c-.11.053-.19.113-.284.15Zm-2.326-3.486a8.892,8.892,0,0,0-.408,1.127c-.077.316-.129.487-.186.8a4.245,4.245,0,0,0-.076.918c.023.15.023.278.038.413a.886.886,0,0,0,.076.282.761.761,0,0,0,.3.39.777.777,0,0,0,.337.154.929.929,0,0,0,.356.076,1.362,1.362,0,0,0,.545-.038,2.336,2.336,0,0,0,.632-.208,3.5,3.5,0,0,0,.674-.392l.038-.038v3.564a2.753,2.753,0,0,1-.637.28,3.929,3.929,0,0,1-.951.244,4.926,4.926,0,0,1-.624.11,3.7,3.7,0,0,1-.67.038,4.732,4.732,0,0,1-1.095-.2,3.278,3.278,0,0,1-1.045-.583,3.333,3.333,0,0,1-.882-.957c-.091-.148-.167-.263-.246-.375-.371.228-.632.356-1.045.6-.526.318-.807.522-1.352.842a18.881,18.881,0,0,1-1.723.935,17.313,17.313,0,0,1-1.894.752,11.285,11.285,0,0,1-1.1.316,6.221,6.221,0,0,1-.981.129,3.563,3.563,0,0,1-.727,0c-.114-.016-.208-.016-.3-.038a3.266,3.266,0,0,1-.333-.091c-.136-.053-.242-.11-.356-.166a1.638,1.638,0,0,1-.265-.208,1.3,1.3,0,0,1-.227-.165,1.435,1.435,0,0,1-.276-.3,2.853,2.853,0,0,1-.152-.394c-.023-.095-.023-.171-.057-.28a3.654,3.654,0,0,1-.053-.657,1.74,1.74,0,0,1,.072-.542l1.818-8.045-2.121.3a1.714,1.714,0,0,1-.28.015.594.594,0,0,1-.447-.19.717.717,0,0,1-.246-.5c0-.072.018-.129.018-.2a.858.858,0,0,1,.038-.131l.371-1.822c.019-.091.019-.165.042-.241a.834.834,0,0,1,.261-.41.873.873,0,0,1,.356-.191.965.965,0,0,1,.266-.036l2.753-.371.886-3.471a.911.911,0,0,1,.2-.437.588.588,0,0,1,.231-.2,1.545,1.545,0,0,1,.186-.11c.056-.017.091-.04.151-.055a.486.486,0,0,1,.208-.057l2.155-.244c.356-.059.56.184.485.543l-.864,3.577,2.291-.259a.451.451,0,0,1,.148-.018h.2a.653.653,0,0,1,.5.318.738.738,0,0,1,.083.636l-.587,2.083a.614.614,0,0,1-.261.375,1.154,1.154,0,0,1-.224.145,1.45,1.45,0,0,1-.341.114c-.072.019-.147.019-.242.038l-2.337.3-1.508,6.8c-.019.057-.019.092-.038.147v.226h.132a1.121,1.121,0,0,1,.208-.07,2.708,2.708,0,0,0,.484-.21c.171-.074.338-.166.565-.278,1-.474,1.537-.768,2.492-1.314.882-.508,1.386-.8,2.2-1.329a2.409,2.409,0,0,0,.072-.455c.095-.5.129-.788.265-1.291a10.592,10.592,0,0,1,.712-1.835,11.646,11.646,0,0,1,1.253-2.159c.284-.392.508-.731.75-1.032a6.785,6.785,0,0,1,.9-.9c.318-.28.541-.489.768-.655a4.263,4.263,0,0,1,.844-.527,4.8,4.8,0,0,1,1.121-.486v4.069a.7.7,0,0,0-.091.076,4.427,4.427,0,0,0-.693.727c-.151.187-.261.339-.375.49-.091.164-.2.316-.318.54-.247.414-.356.659-.564,1.072-.114.228-.186.36-.285.6" transform="translate(-432.648 -53.77)" fill="#231f20" fill-rule="evenodd"/>
    <path id="Path_12" data-name="Path 12" d="M136.992,35.827a.523.523,0,0,1,.506-.206l1.349.356a.7.7,0,0,1,.317.373l1.034,6.525,4.084-.3c.51-.059.713.354.377.731l-3.435,3.956,2.03,5.472c.144.434-.112.714-.545.582l-5.815-1.763-4.742,5.438a.78.78,0,0,1-.3.148l-2.192.172a.423.423,0,0,1-.47-.545l1.539-7.494-4.37-4.694c-.32-.333-.166-.71.282-.744l6.241-.527,4.109-7.479" transform="translate(-105.606 -29.884)" fill="#231f20" fill-rule="evenodd"/>
    <path id="Path_13" data-name="Path 13" d="M607.947,104.837a3.074,3.074,0,0,1-.508.133c-.17.017-.3.051-.435.051a1.525,1.525,0,0,1-.538-.07,1.7,1.7,0,0,1-.811-.528,2.669,2.669,0,0,1-.322-.544c-.054-.146-.068-.318-.125-.505a2.867,2.867,0,0,1-.076-.659c0-.184,0-.351.018-.58a6.092,6.092,0,0,1,.2-1.4,8,8,0,0,1,.542-1.444,6.333,6.333,0,0,1,.588-1.11,10.015,10.015,0,0,1,1.105-1.574c.167-.187.28-.339.409-.468a2.588,2.588,0,0,1,.545-.468,3.278,3.278,0,0,1,1.125-.509,3.153,3.153,0,0,1,.545-.11,2.44,2.44,0,0,1,.617.015,1.636,1.636,0,0,1,.841.342,1.432,1.432,0,0,1,.341.335.81.81,0,0,1,.129.206.366.366,0,0,0,.08.11.435.435,0,0,1-.363.657,3.917,3.917,0,0,0-.481.076.734.734,0,0,0-.341.151,3.389,3.389,0,0,0-.352.225,2.117,2.117,0,0,0-.284.279,6.9,6.9,0,0,0-.7.9c-.148.21-.258.373-.375.541-.09.171-.166.321-.261.547-.17.413-.3.708-.428,1.032a6.962,6.962,0,0,0-.3,1.007c-.095.434-.167.733-.2,1.053a4.391,4.391,0,0,0,.023,1.121.481.481,0,0,1,.015.132.523.523,0,0,1,.057.094c.038.034.071.093.129.148a.426.426,0,0,1-.167.715,2.5,2.5,0,0,0-.242.095" transform="translate(-506.424 -79.62)" fill="#231f20" fill-rule="evenodd"/>
    <path id="Path_14" data-name="Path 14" d="M385.475,14.157a7.076,7.076,0,0,1-3.621-4.785,6.291,6.291,0,0,1-.053-1.835,4.023,4.023,0,0,1,.147-.768,8.635,8.635,0,0,1,5.12-5.418A14.792,14.792,0,0,1,390.989.17c7.219-1.123,10.18,1.577,10.574,2.005a1.064,1.064,0,0,1,.416,1.14,2.463,2.463,0,0,1-.132.415l-.1.189-1.087,1.651a.986.986,0,0,1-1.216.54,2.079,2.079,0,0,1-.451-.191c-.113-.055-.208-.11-.208-.11-2.552-1.987-7.628-.879-7.684-.879-2.458.45-3.454,1.274-3.866,1.9a1.671,1.671,0,0,0-.318.807.9.9,0,0,0,0,.259v.133c-.091,1.013,2.064,2.382,2.2,2.475l7.067,4.665a7.216,7.216,0,0,1,3.677,5.664,9.3,9.3,0,0,1-.076,2.342,6.137,6.137,0,0,1-.208.955,10.053,10.053,0,0,1-5.791,6.338,16.3,16.3,0,0,1-4.427,1.39,14.32,14.32,0,0,1-12.167-2.982,1.1,1.1,0,0,1-.377-1.292,1.345,1.345,0,0,1,.249-.379,1.074,1.074,0,0,1,.11-.13l1.726-2.005a1,1,0,0,1,1.292-.487,1.369,1.369,0,0,1,.435.224.536.536,0,0,1,.144.133,9.706,9.706,0,0,0,5.8,1.989,11.563,11.563,0,0,0,2.079-.112,5.165,5.165,0,0,0,.788-.168,6.544,6.544,0,0,0,4.01-2.492,3.861,3.861,0,0,0,.546-1.127,2.05,2.05,0,0,0,.114-.433c.522-3.166-2.965-4.853-3.018-4.895l-.061-.015-5.548-3.524" transform="translate(-315.284)" fill="#231f20" fill-rule="evenodd"/>
    <path id="Path_15" data-name="Path 15" d="M26.7,201.338c14.38-4.049,22.531-6.2,37.2-9.074,7.665-1.5,15.278-2.661,21.352-3.56,5.6-.849,9.692-1.464,16.91-2.083,3.431-.282,5-.409,6.6-.51s3.189-.147,6.677-.333c1.007-.038,4.7-.131,5.4-.076h.6a2.519,2.519,0,0,1,.4.038,1.137,1.137,0,0,1,.409.131.683.683,0,0,1,.3.43,1.856,1.856,0,0,1,.019.32c-.019.166-.057.339-.057.339l-.5,1.855a1.869,1.869,0,0,1-.08.3.782.782,0,0,1-.295.49.843.843,0,0,1-.493.169,2.06,2.06,0,0,1-.3.015c-.359.036-1.692.076-3,.1-1.409.04-2.87.057-3.393.078-4.651.163-6.507.447-12.411.934-9.32.8-15.937,1.8-22.841,2.944-4.6.748-9.274,1.481-15.144,2.644a370.57,370.57,0,0,0-36.817,9.057c-9.51,2.737-14.89,4.31-24.183,7.665-.322.112-.737.3-1.11.449a2.941,2.941,0,0,1-.562.208,1.15,1.15,0,0,1-.619.038H.7a.648.648,0,0,1-.284-.038.546.546,0,0,1-.356-.337A1.047,1.047,0,0,1,0,213.111c0-.544.057-1.894.095-2.38V210.5a1.191,1.191,0,0,1-.019-.262.778.778,0,0,1,.356-.749,5.944,5.944,0,0,1,.729-.319c.282-.076.564-.166.846-.248,1.6-.573,16.363-5.249,24.693-7.587" transform="translate(0 -155.481)" fill="#231f20" fill-rule="evenodd"/>
    <path id="Path_16" data-name="Path 16" d="M61.651,99.864a1.219,1.219,0,0,1-.15.108c-.036.021-.112.057-.189.094-.074.054-.148.095-.22.148v-3.05a2.509,2.509,0,0,1,.693-.152,4.252,4.252,0,0,1,1.738.032,3.985,3.985,0,0,1,.526.12,2.484,2.484,0,0,1,.565.184,3.054,3.054,0,0,1,.992.77,3.439,3.439,0,0,1,.75,1.311,3.11,3.11,0,0,1,.109,1.99,3.839,3.839,0,0,1-.5,1.256,3.378,3.378,0,0,1-.508.615c-.148.133-.32.282-.5.472a18.385,18.385,0,0,1-1.462,1.3,25.484,25.484,0,0,1-2.272,1.555.569.569,0,0,1-.127.093v-3.865a16.641,16.641,0,0,0,1.759-1.517,4.575,4.575,0,0,0,.577-.748c.04-.08.062-.115.062-.115.127-.392,0-.617-.413-.748a1.783,1.783,0,0,0-1.465.187Zm-.559,11.79h.015a7.018,7.018,0,0,0,1.46-.454,10.737,10.737,0,0,0,2.123-1.083,14.319,14.319,0,0,0,1.685-1.255c.153-.135.468-.375.731-.621a3.455,3.455,0,0,0,.394-.392,1.474,1.474,0,0,0,.135-.243.618.618,0,0,0,0-.473,1.191,1.191,0,0,0-.358-.428.729.729,0,0,0-.153-.114.383.383,0,0,0-.089-.074l-1.371-1.257a.516.516,0,0,0-.6-.019l-.616.529a15.461,15.461,0,0,1-1.261.9,21.553,21.553,0,0,1-2,1.182.255.255,0,0,0-.091.038Zm0-11.439c-.134.1-.263.187-.439.318a5.441,5.441,0,0,0-1.475,1.952,8.5,8.5,0,0,0-.546,2.043c1.014-.655,1.819-1.219,2.46-1.689V106.7c-.714.449-1.316.751-2.028,1.144a.69.69,0,0,0,.248.187,1.931,1.931,0,0,0,1.048.091,2.469,2.469,0,0,0,.733-.241v3.768a5.764,5.764,0,0,1-2.045.166,4.875,4.875,0,0,1-1.166-.221,4.1,4.1,0,0,1-1.237-.567c-.154-.1-.28-.187-.392-.259a1.606,1.606,0,0,1-.339-.343c-.488.362-.746.625-1.255.979a17.48,17.48,0,0,1-2.324,1.442,16.554,16.554,0,0,1-2.028.9c-.32.129-.558.223-.806.32a5.811,5.811,0,0,1-.879.24c-.128.019-.246.055-.354.08a3.765,3.765,0,0,1-.471.036c-.112-.021-.2-.021-.28-.036a1.017,1.017,0,0,1-.356-.134,1.047,1.047,0,0,1-.451-.377,1.145,1.145,0,0,1-.24-.765c0-.166.02-.356.02-.564a4,4,0,0,1,.072-.619c.019-.169.057-.317.095-.544.127-.841.257-1.313.428-2.17.076-.4.095-.621.165-1.015.078-.318.134-.49.191-.809.019-.13.038-.242.057-.357a1.19,1.19,0,0,0,.038-.28.554.554,0,0,0-.019-.185c-.057.075-.095.132-.133.185s-.076.138-.134.223c-.276.453-.386.734-.653,1.2-.5.9-.843,1.388-1.367,2.286-.621,1.032-.9,1.668-1.573,2.681-.336.523-.525.807-.9,1.295-.185.224-.318.415-.471.578a6.177,6.177,0,0,1-.523.547,3.2,3.2,0,0,0-.245.223,3.268,3.268,0,0,1-.318.248,2.461,2.461,0,0,1-.676.312,2.161,2.161,0,0,1-1.222.019,1.891,1.891,0,0,1-.521-.255,1.551,1.551,0,0,1-.487-.375,1.859,1.859,0,0,1-.47-1.239,5.984,5.984,0,0,1-.017-1.164c.017-.244.054-.451.093-.828.057-.5.113-.784.184-1.293.095-.672.133-1.049.267-1.725,0-.057.019-.109.019-.166-.172.28-.267.484-.433.788-.453.71-.748,1.083-1.2,1.78-.766,1.167-1.142,1.856-1.891,3-.489.748-.752,1.183-1.3,1.9-.208.3-.373.54-.542.77a5.192,5.192,0,0,1-.7.731c-.147.127-.263.243-.377.335a3.293,3.293,0,0,1-.468.319,2.894,2.894,0,0,1-.99.336,2.676,2.676,0,0,1-1.163-.018,2.716,2.716,0,0,1-1.221-.578,1.468,1.468,0,0,0-.187-.191c-.053-.076-.11-.129-.167-.2a3.453,3.453,0,0,1-.655-1.148,5.757,5.757,0,0,1-.3-.975c-.036-.127-.055-.224-.091-.316-.246.376-.471.657-.789,1.068a20.741,20.741,0,0,1-2.062,2.418c-.358.376-.636.676-.937.971a9.347,9.347,0,0,1-1.083.905,10.585,10.585,0,0,1-1.859,1.087,8.489,8.489,0,0,1-2.623.9,7.191,7.191,0,0,1-2.382.132,6.323,6.323,0,0,1-1.78-.343,6.251,6.251,0,0,1-2.043-1.14,7.989,7.989,0,0,1-1.915-2.007,9.7,9.7,0,0,1-1.31-2.532,12.919,12.919,0,0,1-.845-3.543,16.606,16.606,0,0,1,0-4.441,27.762,27.762,0,0,1,1.592-6.338,19.407,19.407,0,0,1,2.854-4.855,20.023,20.023,0,0,1,2.337-2.7,23.926,23.926,0,0,1,3.285-2.7,14.136,14.136,0,0,1,3.164-1.462c.36-.115.64-.2.922-.28a4.868,4.868,0,0,1,1.009-.149,5.7,5.7,0,0,1,1.39.038,4.4,4.4,0,0,1,1.126.316c.15.076.278.129.411.19a2.122,2.122,0,0,1,.428.339,1.946,1.946,0,0,1,.582.914,3.13,3.13,0,0,1,.115,1,2.411,2.411,0,0,1-.187.858,2.015,2.015,0,0,1-.6.882,1.911,1.911,0,0,1-1.051.565,2.458,2.458,0,0,1-.5.017c-.135-.017-.263-.036-.436-.074a1.476,1.476,0,0,1-.392-.116,1.021,1.021,0,0,0-.244-.091,3.736,3.736,0,0,0-.619-.112,2.779,2.779,0,0,0-1.253.131,13.151,13.151,0,0,0-1.218.586,6.762,6.762,0,0,0-.657.426c-.206.171-.409.322-.658.526a16.464,16.464,0,0,0-2.475,2.475,17.588,17.588,0,0,0-3.26,5.345,15.756,15.756,0,0,0-1.184,3.992,13.433,13.433,0,0,0-.2,3.244c.038.579.057,1.049.108,1.5a8.642,8.642,0,0,0,.326,1.407,7.179,7.179,0,0,0,.67,1.481c.134.226.246.415.362.583a3.091,3.091,0,0,0,.392.5,2.937,2.937,0,0,0,1.123.847,3.036,3.036,0,0,0,1.127.28,4.669,4.669,0,0,0,1.536-.094,5.716,5.716,0,0,0,1.875-.672,5.142,5.142,0,0,0,.94-.617c.3-.228.56-.47.92-.791a13.5,13.5,0,0,0,2.038-2.193c.568-.751,1.088-1.536,1.764-2.53a18.612,18.612,0,0,0,1.258-1.9,31.22,31.22,0,0,0,1.6-3.113c.127-.261.2-.369.237-.464a.383.383,0,0,0,.062-.075.255.255,0,0,1,.038-.093,1.386,1.386,0,0,1,.148-.3,2.148,2.148,0,0,0,.168-.2c.061-.071.11-.132.148-.172.021-.034.057-.049.057-.072a1.4,1.4,0,0,1,1.163-.636,1.564,1.564,0,0,0,.28-.04,1.573,1.573,0,0,1,.655.117,1.637,1.637,0,0,1,.994.86,1.938,1.938,0,0,1,.173.846,3.615,3.615,0,0,1-.091.447,2.444,2.444,0,0,0-.117.3c-.169.566-.28.882-.451,1.446a16.69,16.69,0,0,0-.75,2.454,6.374,6.374,0,0,0-.145.958,5.383,5.383,0,0,0-.04.544,1.2,1.2,0,0,0,.04.433,1.436,1.436,0,0,0,.068.351.555.555,0,0,0,.1.191c.133.127.148.169.243.187a.325.325,0,0,0,.267,0,.288.288,0,0,0,.108-.061c.039-.034.095-.074.152-.127a1.037,1.037,0,0,0,.284-.282c.093-.11.184-.242.315-.394a15.227,15.227,0,0,0,1.1-1.59c.324-.544.625-1.068,1.074-1.748,1.158-1.738,1.778-2.757,3-4.477.411-.564.544-.772,1.049-1.427a2.283,2.283,0,0,1,.207-.241,2.135,2.135,0,0,1,.259-.3,2.734,2.734,0,0,1,.807-.565,2.458,2.458,0,0,1,.789-.164,2.393,2.393,0,0,1,.917.057,2.792,2.792,0,0,1,.435.076,1.732,1.732,0,0,1,.5.238,1.789,1.789,0,0,1,.655.774,2.15,2.15,0,0,1,.191.631,1.908,1.908,0,0,1,.038.454c-.019.093-.019.2-.038.354a6.571,6.571,0,0,1-.09,1c-.062.489-.138.763-.214,1.272-.053.453-.093.7-.15,1.144-.013.095-.038.19-.051.263l.051-.017a.217.217,0,0,0,.1-.1c.053-.092.091-.185.166-.3.23-.333.318-.538.528-.877.5-.9.748-1.426,1.254-2.326.431-.751.674-1.161,1.125-1.893.337-.523.509-.826.882-1.33.11-.154.187-.285.282-.394a1.556,1.556,0,0,1,.392-.431,2.691,2.691,0,0,1,.918-.582,2.841,2.841,0,0,1,1.237-.154,3.714,3.714,0,0,1,.958.154,2.319,2.319,0,0,1,.658.337,2.075,2.075,0,0,1,.657.6,2.294,2.294,0,0,1,.375.674,3.71,3.71,0,0,1,.188.937,8.6,8.6,0,0,1-.059.975c-.038.509-.038.809-.113,1.335-.057.636-.148.99-.244,1.629a10.441,10.441,0,0,0-.241,1.67c-.018.092-.018.168-.039.242v.055c.021.017.021.04.039.055.038,0,.038-.055.076-.055.07-.018.127-.055.2-.072a.7.7,0,0,0,.173-.074c.071-.038.166-.1.263-.151.747-.415,1.138-.7,1.834-1.163.58-.377.941-.6,1.462-.96a5.045,5.045,0,0,1,.038-.731,11.509,11.509,0,0,1,.317-1.723,10.64,10.64,0,0,1,.526-1.78,8.624,8.624,0,0,1,.9-1.78,8.977,8.977,0,0,1,.943-1.276,7.414,7.414,0,0,1,1.292-1.221,5.079,5.079,0,0,1,2.009-1.043v3.05" transform="translate(-5.783 -76.089)" fill="#231f20" fill-rule="evenodd"/>
    <path id="Path_17" data-name="Path 17" d="M140.532,50.705l3.977-7.2.958,6.938,4.083-.322-3.28,3.3L148,58.236l-4.76-1.364-.341-.115-.879.994-4.783,5.122,1.52-7.224-4.162-4.463,5.942-.481" transform="translate(-112.636 -36.492)" fill="#ffcb04" fill-rule="evenodd"/>
    <path id="Path_18" data-name="Path 18" d="M610.3,106.566a.926.926,0,0,1-.3-.636,5.62,5.62,0,0,1,.175-2.31,10.773,10.773,0,0,1,.768-2.115,5.338,5.338,0,0,1,.67-1.182,8.444,8.444,0,0,1,.732-.939,2.414,2.414,0,0,1,.719-.577,1.918,1.918,0,0,1,1.026-.3,1.435,1.435,0,0,0-.151-.259A.919.919,0,0,0,613.7,98a1.555,1.555,0,0,0-.655-.267,2.125,2.125,0,0,0-.981.1,2.454,2.454,0,0,0-.97.432,4.675,4.675,0,0,0-.883.881,9.157,9.157,0,0,0-1.068,1.5c-.242.414-.356.642-.568,1.072a9.26,9.26,0,0,0-.5,1.371,6,6,0,0,0-.185,1.311,3.745,3.745,0,0,0,.034,1.108,1.738,1.738,0,0,0,.36.858,1.118,1.118,0,0,0,.621.4,1.25,1.25,0,0,0,.749,0,3.969,3.969,0,0,0,.652-.188" transform="translate(-508.71 -81.857)" fill="#231f20" fill-rule="evenodd"/>
    <path id="Path_19" data-name="Path 19" d="M393.546,19.549,388,16c-4.65-2.751-3.336-6.859-3.336-6.859,1.424-5.345,8.658-6.3,8.658-6.3,7.517-1.159,10.237,1.915,10.237,1.915.587.352.076,1.16.076,1.16l-1.087,1.689c-.3.712-1.22.095-1.22.095-2.753-2.142-8.04-.96-8.04-.96-5.022.9-4.534,3.49-4.534,3.49-.133,1.348,2.394,2.886,2.394,2.886l7.066,4.667c4.992,2.944,3.212,8.457,3.212,8.457-1.671,6.281-9.862,7.425-9.862,7.425a13.861,13.861,0,0,1-11.794-2.909.686.686,0,0,1,0-1.123l1.781-2.081c.432-.809,1.22-.038,1.22-.038a11.01,11.01,0,0,0,9.073,1.8c4.7-1.22,4.969-4.443,4.969-4.443.6-3.525-3.264-5.324-3.264-5.324" transform="translate(-317.561 -2.246)" fill="#fff" fill-rule="evenodd"/>
    <path id="Path_20" data-name="Path 20" d="M4.432,211.645c1.557-.547,16.351-5.232,24.695-7.573,14.359-4.031,22.513-6.2,37.157-9.078,7.669-1.5,15.263-2.641,21.314-3.543,5.605-.841,9.676-1.462,16.9-2.079,6.82-.585,6.3-.489,13.274-.842.992-.038,4.719-.133,5.344-.08a3.151,3.151,0,0,1,1.2.117c.185.091.061.559.061.559L123.857,191c-.057.164-.076.447-.208.54a.923.923,0,0,1-.557.1c-.515.074-5.31.129-6.377.169-4.647.187-6.525.452-12.426.953-9.324.791-15.96,1.783-22.856,2.923-4.628.767-9.3,1.486-15.187,2.645A373.515,373.515,0,0,0,29.388,207.4c-9.523,2.738-14.884,4.316-24.2,7.671-.637.221-1.668.788-2.022.695-.248-.055-.433.112-.417-.358,0-.524.061-1.875.1-2.342.038-.43-.152-.71.129-.9a9.044,9.044,0,0,1,1.462-.522" transform="translate(-2.296 -157.782)" fill="#fff" fill-rule="evenodd"/>
    <path id="Path_21" data-name="Path 21" d="M63.386,105.681c2.791-2.061,2.869-2.871,2.869-2.871.414-1.291-1.479-1.721-2.568-1.011,0,0-.113.055-.3.17V99.907a4.037,4.037,0,0,1,.771-.167,3.778,3.778,0,0,1,1.588.013,4.33,4.33,0,0,1,.978.282,2.486,2.486,0,0,1,.863.655,2.714,2.714,0,0,1,.655,1.163,2.462,2.462,0,0,1,.21.975,3.774,3.774,0,0,1-.1.771,3.172,3.172,0,0,1-.468,1.107,4.788,4.788,0,0,1-.941,1.013,14.883,14.883,0,0,1-1.424,1.252,22.276,22.276,0,0,1-2.136,1.484Zm6.151,3.936V109.6c-.114-.227-.319-.322-.489-.484l-1.369-1.259-.658.545a14.976,14.976,0,0,1-1.276.935,22.455,22.455,0,0,1-2.039,1.182c-.1.057-.206.094-.32.149v2.811a8.315,8.315,0,0,0,1.33-.407A9.322,9.322,0,0,0,66.764,112a12.332,12.332,0,0,0,1.644-1.2c.265-.222,1.051-.8,1.128-1.1Zm-9.057-1.982c1.2-.756,2.159-1.392,2.906-1.954v2.775c-.034.017-.053.036-.091.057-.882.583-1.578.9-2.5,1.423a1.148,1.148,0,0,0,.227.453,1,1,0,0,0,.415.331,2.218,2.218,0,0,0,1.3.113,3.319,3.319,0,0,0,.653-.169v2.811c-.015,0-.034.02-.053.02a6.139,6.139,0,0,1-1.933.15,3.882,3.882,0,0,1-1.068-.207,3.362,3.362,0,0,1-1.128-.5,1.847,1.847,0,0,1-.67-.584.856.856,0,0,1-.154-.3,2.284,2.284,0,0,0-.352.263c-.526.375-.789.64-1.316.992a16.218,16.218,0,0,1-2.267,1.424,15.454,15.454,0,0,1-1.988.884,7.168,7.168,0,0,1-1.615.524,2.333,2.333,0,0,1-.689.11,1.006,1.006,0,0,1-.472-.11.74.74,0,0,1-.3-.244c-.246-.339-.133-.636-.133-1.07.02-.428.092-.656.149-1.087.146-.843.28-1.311.432-2.172.078-.4.1-.621.187-1,.057-.316.112-.508.169-.824a3.045,3.045,0,0,0,.114-.729,2.044,2.044,0,0,0-.055-.452.648.648,0,0,0-.078-.169c-.074-.078-.131-.135-.226-.135a.4.4,0,0,0-.206.057c-.133.059-.172.134-.261.247a4.618,4.618,0,0,0-.3.452c-.282.466-.394.744-.661,1.218-.5.9-.824,1.388-1.346,2.268-.619,1.048-.9,1.666-1.574,2.677-.339.51-.507.792-.884,1.276a8.145,8.145,0,0,1-.937,1.051,2.2,2.2,0,0,1-.505.431,2,2,0,0,1-.563.261,1.516,1.516,0,0,1-.956.019,2.482,2.482,0,0,1-.429-.2,2.194,2.194,0,0,1-.379-.3,1.4,1.4,0,0,1-.353-.995,6.475,6.475,0,0,1,.076-1.895c.054-.485.11-.767.186-1.254.091-.676.132-1.049.244-1.725a3.688,3.688,0,0,0,.11-.754c-.017-.074-.092-.2-.11-.28,0-.076-.282-.02-.282-.02a.337.337,0,0,0-.185.153c-.173.225-.154.171-.244.3-.226.337-.321.565-.527.9-.429.716-.729,1.091-1.181,1.784-.767,1.161-1.142,1.839-1.89,3-.488.733-.735,1.165-1.276,1.875a7.829,7.829,0,0,1-1.185,1.443,4.25,4.25,0,0,1-.746.583,2.472,2.472,0,0,1-.863.3,2.112,2.112,0,0,1-.995-.038,1.736,1.736,0,0,1-.6-.184,2.1,2.1,0,0,1-.727-.638,3.03,3.03,0,0,1-.587-1.015,5.629,5.629,0,0,1-.28-.932,7.663,7.663,0,0,1-.2-.754,3.414,3.414,0,0,1-.1-.657c-.132.229-.208.376-.356.6a14.442,14.442,0,0,1-1.013,1.423,22.074,22.074,0,0,1-2.024,2.361,13.142,13.142,0,0,1-1.97,1.824,9.7,9.7,0,0,1-1.778,1.066,8.643,8.643,0,0,1-2.515.86,7.788,7.788,0,0,1-2.268.112,6.3,6.3,0,0,1-1.668-.318,5.789,5.789,0,0,1-1.917-1.068,7.772,7.772,0,0,1-1.833-1.913,9.625,9.625,0,0,1-1.258-2.416,12.258,12.258,0,0,1-.8-3.452,16.088,16.088,0,0,1,0-4.328,20.323,20.323,0,0,1,.6-3.189,19.313,19.313,0,0,1,.979-3.037,18.036,18.036,0,0,1,2.772-4.745,21.121,21.121,0,0,1,2.284-2.656,21.563,21.563,0,0,1,3.231-2.644,12.429,12.429,0,0,1,3.054-1.409,7.434,7.434,0,0,1,1.835-.432,5.951,5.951,0,0,1,1.276.054,3.4,3.4,0,0,1,1.011.284,1.983,1.983,0,0,1,.714.434,1.641,1.641,0,0,1,.47.75,2.046,2.046,0,0,1,.093.821,1.839,1.839,0,0,1-.152.716,1.784,1.784,0,0,1-.489.729,1.453,1.453,0,0,1-.84.433,1.8,1.8,0,0,1-.769-.038c-.242-.055-.354-.153-.6-.21A3.041,3.041,0,0,0,24.6,97.4a3,3,0,0,0-1.462.166,10.25,10.25,0,0,0-1.276.6,8.279,8.279,0,0,0-1.367,1.013,16.305,16.305,0,0,0-2.532,2.529,17.877,17.877,0,0,0-3.336,5.456,15.522,15.522,0,0,0-1.218,4.09,13.355,13.355,0,0,0-.187,3.331,9.736,9.736,0,0,0,.45,3.039,7.1,7.1,0,0,0,.714,1.557,4.607,4.607,0,0,0,.8,1.163A3.451,3.451,0,0,0,17.7,121.6a4.919,4.919,0,0,0,1.668-.093,5.85,5.85,0,0,0,2.006-.712,9.172,9.172,0,0,0,1.946-1.464,22.3,22.3,0,0,0,3.886-4.8c.5-.729.8-1.146,1.255-1.915a34.042,34.042,0,0,0,1.631-3.165c.225-.468.244-.4.354-.674a3.407,3.407,0,0,1,.489-.658.892.892,0,0,1,.769-.428c.415,0,.2-.132.807.055a1.077,1.077,0,0,1,.714.619,1.275,1.275,0,0,1,.133.632,2.608,2.608,0,0,1-.191.638c-.163.567-.278.882-.449,1.448a19.009,19.009,0,0,0-.771,2.492,9.983,9.983,0,0,0-.15,1.007,3.237,3.237,0,0,0,0,1.112,1.581,1.581,0,0,0,.284.729.862.862,0,0,0,.43.339.842.842,0,0,0,.562,0,1.4,1.4,0,0,0,.4-.263,3.885,3.885,0,0,0,.654-.748,34.554,34.554,0,0,0,2.193-3.357c1.165-1.759,1.8-2.776,3.02-4.482.394-.559.524-.75,1.034-1.407a2.786,2.786,0,0,1,1.085-.973,2.5,2.5,0,0,1,.657-.152,2.781,2.781,0,0,1,.786.057,1.655,1.655,0,0,1,.784.264,1.451,1.451,0,0,1,.505.6,1.788,1.788,0,0,1,.152.507,4.487,4.487,0,0,1,0,.712,9.324,9.324,0,0,1-.108.957c-.057.489-.132.769-.208,1.259-.057.447-.074.707-.152,1.159a1.308,1.308,0,0,0-.036.452.42.42,0,0,0,.4.372c.089.023.239-.076.352-.146a1.668,1.668,0,0,0,.375-.526,8.823,8.823,0,0,0,.547-.9c.506-.9.746-1.439,1.254-2.321.415-.752.655-1.169,1.107-1.875.339-.528.506-.83.86-1.313a3.544,3.544,0,0,1,.6-.747,2,2,0,0,1,.786-.494,2.4,2.4,0,0,1,1.072-.129,2.632,2.632,0,0,1,.826.129,2.445,2.445,0,0,1,.56.284,1.519,1.519,0,0,1,.544.505,1.573,1.573,0,0,1,.316.547,2.351,2.351,0,0,1,.15.8,6.417,6.417,0,0,1-.057.92c-.032.5-.032.8-.093,1.313-.071.636-.149.992-.261,1.608a13.987,13.987,0,0,0-.246,1.725,1.015,1.015,0,0,0,0,.452.493.493,0,0,0,.153.268c.2.162.433.034.714-.044a2.016,2.016,0,0,0,.523-.276c.748-.413,1.144-.7,1.873-1.165.644-.412,1-.659,1.634-1.107.019-.356.019-.545.057-.9a10.4,10.4,0,0,1,.3-1.67,9.043,9.043,0,0,1,.5-1.723,7.66,7.66,0,0,1,.859-1.721,10.949,10.949,0,0,1,.9-1.2,7.174,7.174,0,0,1,1.219-1.165,5.407,5.407,0,0,1,1.255-.773,3.383,3.383,0,0,1,.47-.164v2.062a5.836,5.836,0,0,0-2.3,2.623,7.934,7.934,0,0,0-.6,3.043" transform="translate(-8.098 -78.366)" fill="#fff" fill-rule="evenodd"/>
    <path id="Path_22" data-name="Path 22" d="M537.486,80.51c.076-.057.155-.114.231-.169a6.72,6.72,0,0,0,.708-.636,7.5,7.5,0,0,0,.886-1,7.332,7.332,0,0,0,.617-1.085,10.232,10.232,0,0,0,.617-1.6,7.748,7.748,0,0,0,.243-.935,4.473,4.473,0,0,0,.129-1.569,2.068,2.068,0,0,0-.129-.733,1.64,1.64,0,0,0-.379-.586,1.27,1.27,0,0,0-.428-.32,1.676,1.676,0,0,0-.58-.129,2.28,2.28,0,0,0-.511,0,2.128,2.128,0,0,0-.655.208,2.916,2.916,0,0,0-.674.356c-.038.018-.06.018-.076.034v-3l.174-.055a6.458,6.458,0,0,1,.841-.189A4.48,4.48,0,0,1,539.512,69a2.431,2.431,0,0,1,.523.038,2.282,2.282,0,0,1,.553.116,4.734,4.734,0,0,1,.556.221,2.751,2.751,0,0,1,.58.334,2.551,2.551,0,0,1,.436.4,2.927,2.927,0,0,1,.408.621,2.354,2.354,0,0,1,.185.5,2.326,2.326,0,0,1,.114.32,1.006,1.006,0,0,1,.4-.019.884.884,0,0,1,.291.095.823.823,0,0,1,.284.2,2.2,2.2,0,0,1,.152.21.941.941,0,0,1,.148.236.526.526,0,0,1,.057.284.8.8,0,0,1-.019.3l-1.428,5.38c-.015.114-.075.173-.094.28a.531.531,0,0,0-.011.229.442.442,0,0,0,.031.2.433.433,0,0,0,.113.127.354.354,0,0,0,.189.078.665.665,0,0,0,.288,0,1.039,1.039,0,0,0,.253-.078,1.254,1.254,0,0,0,.36-.2,3.248,3.248,0,0,0,.542-.6c.674-.75,1.014-1.222,1.651-1.964.788-.941,1.239-1.464,2.045-2.388.408-.447.636-.73,1.068-1.159a2.363,2.363,0,0,1,.507-.51,1.029,1.029,0,0,1,.485-.24,1.189,1.189,0,0,1,.507-.038,1.05,1.05,0,0,1,.485.112,1.368,1.368,0,0,1,.432.333,1.76,1.76,0,0,1,.246.343c.113.146.125.263.239.39.041.059.041.115.1.134s.1.038.152,0c.053-.019.072-.076.091-.134.095-.127.038-.244.057-.39a5.063,5.063,0,0,0,.019-.75c.019-.64.038-.976.057-1.6a5.459,5.459,0,0,1,.019-.788,1.53,1.53,0,0,1,.113-.356.734.734,0,0,1,.2-.375.681.681,0,0,1,.307-.152.77.77,0,0,1,.356-.053,1.026,1.026,0,0,1,.318.053c.185.042.3.063.481.1.25.036.375.053.624.074a12.4,12.4,0,0,0,1.852.019c.943,0,1.484,0,2.42-.076.11,0,.17-.017.28-.017a.52.52,0,0,1,.28.053.437.437,0,0,1,.231.15.657.657,0,0,1,.076.208,1.822,1.822,0,0,1-.018.246l-.231,1.871a.521.521,0,0,1-.095.244.433.433,0,0,1-.148.187c-.133.1-.265.036-.428.072a6.558,6.558,0,0,1-1.11.041c-.5.021-.791.021-1.3,0a7.454,7.454,0,0,1-1.105-.017c-.186-.025-.3-.038-.508-.08-.015.153-.015.246-.038.418-.106.616-.144.972-.257,1.606-.174.976-.155,1.369-.432,2.494-.261,1.318-.341,1.765-.5,2.462a28.3,28.3,0,0,1-.659,2.918.494.494,0,0,1-.208.359.6.6,0,0,1-.391.11l-2.121.136a.66.66,0,0,1-.208-.02.328.328,0,0,1-.167-.152c-.018-.093.019-.131.019-.225a3.006,3.006,0,0,1,.072-.407l1.128-4.9a2.681,2.681,0,0,0,.129-.56,1.231,1.231,0,0,0,.038-.379.773.773,0,0,0-.167-.314c-.057-.1-.068-.171-.17-.229a.47.47,0,0,0-.242-.108.635.635,0,0,0-.394-.015,1.781,1.781,0,0,0-.336.087,1.311,1.311,0,0,0-.47.377c-.338.375-.512.565-.788.859-.451.527-.826,1.144-1.4,1.8-1.148,1.292-1.776,2.117-3,3.334-.189.169-.3.278-.489.451a9.235,9.235,0,0,1-.735.581,2.86,2.86,0,0,1-.522.375,1.869,1.869,0,0,1-.5.208,1.557,1.557,0,0,1-.58.053,1.376,1.376,0,0,1-.492-.131,1.562,1.562,0,0,1-.394-.244,1.11,1.11,0,0,1-.258-.354,1.872,1.872,0,0,1-.132-.565,3.643,3.643,0,0,1,0-.5c.015-.17.038-.265.057-.432a1.558,1.558,0,0,0,.023-.394c0-.1.034-.153-.023-.21-.08-.071-.174-.02-.246.057-.114.073-.095.189-.152.3-.148.208-.28.263-.428.45-.227.257-.318.432-.56.672a6.438,6.438,0,0,1-.713.621,6.524,6.524,0,0,1-.9.542.221.221,0,0,1-.076.038Zm-2.451-4.832c-.113.221-.174.35-.283.6a8.012,8.012,0,0,0-.432,1.2,4.032,4.032,0,0,0-.185.842,3.479,3.479,0,0,0-.095,1.007,1.862,1.862,0,0,0,.167.865,1.357,1.357,0,0,0,.416.563,2.194,2.194,0,0,0,.485.226,2.115,2.115,0,0,0,.447.092,2.4,2.4,0,0,0,.655-.039,2.249,2.249,0,0,0,.739-.243,2.868,2.868,0,0,0,.538-.282V83a5.03,5.03,0,0,1-.784.375,5.383,5.383,0,0,1-.882.229,4.556,4.556,0,0,1-1.2.132,2.844,2.844,0,0,1-.958-.191,2.679,2.679,0,0,1-.939-.509,2.722,2.722,0,0,1-.765-.842,3.266,3.266,0,0,1-.432-.822,2.955,2.955,0,0,1-.28.2c-.451.326-.731.437-1.186.719-.526.316-.8.524-1.348.822a18.492,18.492,0,0,1-1.689.92,18.008,18.008,0,0,1-1.833.731,7.322,7.322,0,0,1-1.072.3,5.525,5.525,0,0,1-.921.133,4.662,4.662,0,0,1-.651,0,1.913,1.913,0,0,1-.53-.114,1.463,1.463,0,0,1-.5-.3,1.093,1.093,0,0,1-.375-.356,1.171,1.171,0,0,1-.155-.521,1.78,1.78,0,0,1-.057-.545,2.007,2.007,0,0,1,.057-.472l1.969-8.659-2.753.377c-.155.018-.265.051-.375-.042-.136-.113-.1-.259-.057-.428l.375-1.82a.8.8,0,0,1,.148-.411.711.711,0,0,1,.394-.134l3.06-.394.954-3.767a.549.549,0,0,1,.125-.282.608.608,0,0,1,.25-.169c.091-.038.129-.078.224-.078l2.159-.261-1.015,4.221,2.924-.356c.166-.019.34-.038.431.112a.287.287,0,0,1,.019.277l-.58,2.068c-.038.15-.151.187-.265.263a1.123,1.123,0,0,1-.431.093l-2.662.352-1.557,7.111a1.01,1.01,0,0,0-.05.337c0,.15-.038.261.05.39.038.072.095.095.166.15a.727.727,0,0,0,.284.038,1.7,1.7,0,0,0,.417-.092,7.029,7.029,0,0,0,1.106-.506c1-.489,1.553-.786,2.53-1.331.936-.545,1.462-.865,2.4-1.443.019-.263.053-.414.091-.657a10.075,10.075,0,0,1,.242-1.236,10.943,10.943,0,0,1,.693-1.784,12.044,12.044,0,0,1,1.2-2.077,9.816,9.816,0,0,1,1.583-1.859,7.149,7.149,0,0,1,1.534-1.125,6.156,6.156,0,0,1,.917-.41v3c-.144.113-.243.206-.391.339a6.21,6.21,0,0,0-.749.789,7.55,7.55,0,0,0-.731,1.085,9.828,9.828,0,0,0-.58,1.11" transform="translate(-434.956 -56.008)" fill="#fff" fill-rule="evenodd"/>
  </g>
</svg>
