<svg xmlns="http://www.w3.org/2000/svg" width="91.001" height="34" viewBox="0 0 91.001 34">
  <path id="Subtraction_6" data-name="Subtraction 6" d="M89,34H2a2,2,0,0,1-2-2V10A10.012,10.012,0,0,1,10,0H81A10.011,10.011,0,0,1,91,10V32A2,2,0,0,1,89,34ZM42.447,10.686a3.736,3.736,0,0,0-2.43.872,3.986,3.986,0,0,0-1.436,2.9,4.04,4.04,0,0,0,1.149,3.022l5.607,5.686a.92.92,0,0,0,1.313,0l5.607-5.686a4.039,4.039,0,0,0,1.151-3.021,3.984,3.984,0,0,0-1.436-2.9,3.735,3.735,0,0,0-2.429-.872,4.217,4.217,0,0,0-2.978,1.259l-.571.578-.571-.578A4.21,4.21,0,0,0,42.447,10.686Z" transform="translate(0.001)" fill="#fff"/>
</svg>
