<svg xmlns="http://www.w3.org/2000/svg" width="145" height="110" viewBox="0 0 145 110">
  <g id="Group_140" data-name="Group 140" transform="translate(-736 -1185.501)">
    <g id="Group_79" data-name="Group 79" transform="translate(734.5 1185.259)">
      <g id="Group_73" data-name="Group 73" transform="translate(0 0)">
        <path id="Rectangle_93" data-name="Rectangle 93" d="M6,0H9a6,6,0,0,1,6,6V16a1,1,0,0,1-1,1H1a1,1,0,0,1-1-1V6A6,6,0,0,1,6,0Z" transform="translate(5.5 0.242)" fill="#fff"/>
        <text id="Regular" transform="translate(1.5 33.242)" fill="#ac8fbf" font-size="6" font-family="Poppins-Regular, Poppins"><tspan x="0" y="0">Regular</tspan></text>
      </g>
      <g id="Group_74" data-name="Group 74" transform="translate(54.363 0)">
        <g id="Group_72" data-name="Group 72" transform="translate(0 0)">
          <path id="Subtraction_2" data-name="Subtraction 2" d="M13,16H1a1,1,0,0,1-1-1V6A6.007,6.007,0,0,1,6,0H8a6.007,6.007,0,0,1,6,6v9A1,1,0,0,1,13,16ZM7,4.718a.4.4,0,0,0-.363.228l-.826,1.7-1.85.273a.4.4,0,0,0-.326.276.412.412,0,0,0,.1.424l1.338,1.32L4.757,10.8a.4.4,0,0,0,.09.333.413.413,0,0,0,.311.147.388.388,0,0,0,.187-.048L7,10.353l1.655.881a.4.4,0,0,0,.187.047.413.413,0,0,0,.311-.146.4.4,0,0,0,.09-.333L8.926,8.937l1.338-1.32a.412.412,0,0,0,.1-.424.4.4,0,0,0-.326-.276l-1.85-.273-.827-1.7A.4.4,0,0,0,7,4.718Z" transform="translate(0.138 0.242)" fill="#fff"/>
        </g>
        <text id="VIP" transform="translate(3.138 33.242)" fill="#ac8fbf" font-size="6" font-family="Poppins-Regular, Poppins"><tspan x="0" y="0">VIP</tspan></text>
      </g>
      <g id="Group_75" data-name="Group 75" transform="translate(104.911 0)">
        <path id="Subtraction_10" data-name="Subtraction 10" d="M41,16H1a1,1,0,0,1-1-1V6A6.007,6.007,0,0,1,6,0H36a6.007,6.007,0,0,1,6,6v9A1,1,0,0,1,41,16ZM19.591,5.028a1.7,1.7,0,0,0-1.121.41A1.89,1.89,0,0,0,17.807,6.8a1.922,1.922,0,0,0,.53,1.424L20.925,10.9a.419.419,0,0,0,.606,0l2.588-2.676A1.922,1.922,0,0,0,24.65,6.8a1.89,1.89,0,0,0-.662-1.361,1.7,1.7,0,0,0-1.121-.41,1.927,1.927,0,0,0-1.375.593l-.264.272-.264-.272A1.924,1.924,0,0,0,19.591,5.028Z" transform="translate(-0.411 0.242)" fill="#fff"/>
        <text id="LoveSeat" transform="translate(7.59 33.242)" fill="#ac8fbf" font-size="6" font-family="Poppins-Regular, Poppins"><tspan x="0" y="0">LoveSeat</tspan></text>
      </g>
    </g>
    <g id="Group_83" data-name="Group 83" transform="translate(-197.5 303)">
      <g id="Group_76" data-name="Group 76" transform="translate(997.109 957.259)">
        <rect id="Rectangle_92" data-name="Rectangle 92" width="16" height="17" rx="8" transform="translate(6.391 0.242)" fill="#ffcd0c"/>
        <text id="Selected" transform="translate(1.391 33.242)" fill="#ac8fbf" font-size="6" font-family="Poppins-Regular, Poppins"><tspan x="0" y="0">Selected</tspan></text>
      </g>
      <g id="Group_77" data-name="Group 77" transform="translate(1048.472 957.259)">
        <g id="Group_80" data-name="Group 80">
          <text id="Taken" transform="translate(3.028 33.242)" fill="#ac8fbf" font-size="6" font-family="Poppins-Regular, Poppins"><tspan x="0" y="0">Taken</tspan></text>
          <rect id="Rectangle_96" data-name="Rectangle 96" width="16" height="17" rx="8" transform="translate(4.028 0.242)" fill="#fff" opacity="0.1"/>
        </g>
      </g>
      <g id="Group_78" data-name="Group 78" transform="translate(940.838 957.259)">
        <rect id="Rectangle_92-2" data-name="Rectangle 92" width="16" height="17" rx="8" transform="translate(8.662 0.242)" fill="#fff"/>
        <text id="Available" transform="translate(2.662 33.242)" fill="#ac8fbf" font-size="6" font-family="Poppins-Regular, Poppins"><tspan x="0" y="0">Available</tspan></text>
      </g>
    </g>
    <line id="Line_4" data-name="Line 4" y2="35" transform="translate(826.5 1240.501) rotate(90)" fill="none" stroke="#ac8fbf" stroke-width="1"/>
  </g>
</svg>
