<svg xmlns="http://www.w3.org/2000/svg" width="30.001" height="34" viewBox="0 0 30.001 34">
  <path id="Subtraction_2" data-name="Subtraction 2" d="M28,34H2a2,2,0,0,1-2-2V10A10.012,10.012,0,0,1,10,0H20A10.011,10.011,0,0,1,30,10V32A2,2,0,0,1,28,34ZM15,10.027a.85.85,0,0,0-.777.485l-1.772,3.605-3.964.58A.873.873,0,0,0,8,16.185l2.868,2.805-.679,3.964a.855.855,0,0,0,.19.706.884.884,0,0,0,.666.313.853.853,0,0,0,.4-.1L15,22l3.547,1.871a.852.852,0,0,0,.4.1.886.886,0,0,0,.668-.313.854.854,0,0,0,.189-.705l-.679-3.964,2.867-2.805a.873.873,0,0,0-.48-1.487l-3.965-.58-1.771-3.605A.866.866,0,0,0,15,10.027Z" transform="translate(0.001 0)" fill="#fff"/>
</svg>
